<?xml version="1.0" encoding="UTF-8" standalone="no"?>
<svg width="24px" height="24px" viewBox="0 0 24 24" version="1.1" xmlns="http://www.w3.org/2000/svg" xmlns:xlink="http://www.w3.org/1999/xlink">
    <!-- Generator: Sketch 3.6.1 (26313) - http://www.bohemiancoding.com/sketch -->
    <title>earth-grid</title>
    <desc>Created with Sketch.</desc>
    <defs></defs>
    <g id="Page-1" stroke="none" stroke-width="1" fill="none" fill-rule="evenodd">
        <g id="earth-grid" fill="#F20113">
            <path d="M11.9739321,0 C5.37148825,0 0,5.37148825 0,11.9739321 C0,18.576376 5.37148825,23.9478642 11.9739321,23.9478642 C18.5764386,23.9478642 23.9478642,18.576376 23.9478642,11.9739321 C23.9478642,5.37148825 18.5764386,0 11.9739321,0 L11.9739321,0 Z M22.9972637,11.5039582 L20.5572846,11.5039582 C20.4950601,9.23667885 19.9835405,7.07912272 19.0825692,5.23582245 C19.4120522,4.99181201 19.7303812,4.72950392 20.0367415,4.44990078 C21.7788407,6.3155718 22.8826527,8.78387467 22.9972637,11.5039582 L22.9972637,11.5039582 Z M14.7865692,3.70840731 C14.4861619,2.6735248 14.1368146,1.84756136 13.7469243,1.2396658 C15.3839373,1.80200522 16.818611,3.12488773 17.8606997,4.9344752 C17.0675091,5.4365953 16.2164804,5.83256397 15.3257232,6.11548825 C15.1788407,5.24772846 14.9984961,4.43862141 14.7865692,3.70840731 L14.7865692,3.70840731 Z M14.4151645,6.3623812 C13.6228512,6.54065796 12.8053473,6.63245953 11.9741828,6.63245953 C11.142893,6.63245953 10.3252637,6.5405953 9.5327624,6.36225587 C10.1076971,2.91527937 11.1521044,0.939947781 11.9739321,0.939947781 C12.7958225,0.939947781 13.8402298,2.91527937 14.4151645,6.3623812 L14.4151645,6.3623812 Z M9.10759269,11.5039582 C9.12520104,9.95128982 9.22947258,8.54168146 9.39402611,7.29449608 C10.2323969,7.47791123 11.0962715,7.57240731 11.9741828,7.57240731 C12.8519687,7.57240731 13.715718,7.47791123 14.5539008,7.29455875 C14.7184543,8.54174413 14.8226632,9.95135248 14.8403342,11.5038956 L9.10759269,11.5038956 L9.10759269,11.5039582 Z M14.8403342,12.443906 C14.8227258,13.9966997 14.7184543,15.4064334 14.5538381,16.6537441 C13.7156554,16.4703916 12.851906,16.3759582 11.9741828,16.3759582 C11.0963342,16.3759582 10.2324595,16.4704543 9.39408877,16.6538695 C9.22947258,15.4064961 9.12520104,13.9967624 9.10759269,12.443906 L14.8403342,12.443906 L14.8403342,12.443906 Z M10.2010653,1.2396658 C9.81117493,1.84756136 9.46182768,2.6735248 9.16142037,3.70840731 C8.94943081,4.43862141 8.76914883,5.24760313 8.62232898,6.11530026 C7.73163446,5.83237598 6.88060574,5.43646997 6.08741514,4.93434987 C7.12944125,3.12482507 8.56411488,1.80200522 10.2010653,1.2396658 L10.2010653,1.2396658 Z M8.47939426,7.056 C8.29215666,8.4401671 8.18550392,9.94571279 8.16758225,11.5040209 L4.33096606,11.5040209 C4.39287728,9.38475196 4.87093473,7.41819321 5.65046475,5.77052742 C6.53520627,6.32259008 7.48518016,6.75390078 8.47939426,7.056 L8.47939426,7.056 Z M8.16764491,12.443906 C8.18556658,14.0024021 8.29221932,15.5081358 8.47951958,16.8924282 C7.48536815,17.1944648 6.53539426,17.6257128 5.65065274,18.1778381 C4.87099739,16.530047 4.39287728,14.5633629 4.33096606,12.443906 L8.16764491,12.443906 L8.16764491,12.443906 Z M8.62239164,17.8330653 C8.76921149,18.7005744 8.94949347,19.5094308 9.16142037,20.2395196 C9.46182768,21.2744021 9.81117493,22.1003655 10.2010653,22.7082611 C8.56424021,22.1459217 7.12962924,20.8232272 6.08760313,19.013953 C6.88073107,18.5118956 7.73169713,18.1159896 8.62239164,17.8330653 L8.62239164,17.8330653 Z M9.53282507,17.5861723 C10.3252637,17.4078329 11.142893,17.3159687 11.9741201,17.3159687 C12.8052219,17.3159687 13.6227258,17.4077702 14.4150392,17.586047 C13.8400418,21.0328355 12.7957598,23.0079791 11.9739321,23.0079791 C11.1521044,23.0079791 10.1078225,21.0328355 9.53282507,17.5861723 L9.53282507,17.5861723 Z M13.7468616,22.7082611 C14.136752,22.1003655 14.4860992,21.2744021 14.7865065,20.2395822 C14.9984334,19.5094935 15.1787781,18.7005744 15.3255352,17.8330026 C16.2162298,18.1159269 17.0672585,18.5118329 17.8603864,19.0138903 C16.8183603,20.8231645 15.3837493,22.1459217 13.7468616,22.7082611 L13.7468616,22.7082611 Z M15.46847,16.8923029 C15.6557076,15.5080731 15.7623603,14.0024021 15.780282,12.443906 L19.6169608,12.443906 C19.5550496,14.5633003 19.0769295,16.5299217 18.2973368,18.1777128 C17.412658,17.6256501 16.4626841,17.1943394 15.46847,16.8923029 L15.46847,16.8923029 Z M15.780282,11.5039582 C15.762423,9.94571279 15.6557702,8.4401671 15.4685326,7.05606266 C16.4628094,6.75402611 17.412846,6.3227154 18.2975248,5.77052742 C19.0770548,7.41819321 19.5550496,9.3846893 19.6169608,11.5039582 L15.780282,11.5039582 L15.780282,11.5039582 Z M19.3662454,3.78955614 C19.1295039,4.00361358 18.8848668,4.20626632 18.6332115,4.3974517 C18.4654621,4.11151958 18.2878747,3.83467363 18.0999478,3.56841775 C17.6970862,2.9976188 17.2601358,2.49067363 16.7955509,2.05065274 C17.7344334,2.50872063 18.5991854,3.096 19.3662454,3.78955614 L19.3662454,3.78955614 Z M5.84797911,3.56841775 C5.65998956,3.83467363 5.48240209,4.11158225 5.3147154,4.3974517 C5.06299739,4.20626632 4.81836031,4.00367624 4.58155614,3.7896188 C5.34867885,3.09606266 6.21343081,2.50872063 7.15243864,2.05065274 C6.68779112,2.49061097 6.25090339,2.9976188 5.84797911,3.56841775 L5.84797911,3.56841775 Z M3.91112272,4.44996345 C4.21754569,4.72950392 4.53587467,4.99181201 4.86542037,5.23575979 C3.96444909,7.07906005 3.45286684,9.23661619 3.3906423,11.5039582 L0.950663185,11.5039582 C1.06527415,8.78387467 2.16908616,6.3155718 3.91112272,4.44996345 L3.91112272,4.44996345 Z M0.950663185,12.443906 L3.3906423,12.443906 C3.45286684,14.7113734 3.96451175,16.8691175 4.86554569,18.7124804 C4.53606266,18.9564282 4.21773368,19.2186736 3.91137337,19.4982141 C2.16914883,17.6325431 1.06527415,15.1641775 0.950663185,12.443906 L0.950663185,12.443906 Z M4.58186945,20.1585587 C4.81861097,19.944564 5.06324804,19.7419739 5.31490339,19.5508512 C5.48259008,19.8365953 5.66011488,20.1133786 5.84797911,20.3795718 C6.25084073,20.9503081 6.68772846,21.4573159 7.15237598,21.8972742 C6.21355614,21.4392689 5.3489295,20.8519896 4.58186945,20.1585587 L4.58186945,20.1585587 Z M18.0998851,20.3795718 C18.287812,20.1133786 18.4653368,19.8365953 18.6330235,19.5508512 C18.8846789,19.7420366 19.1293159,19.9446266 19.3659948,20.1586841 C18.5989974,20.8521149 17.7343708,21.4393316 16.7955509,21.8973368 C17.2601358,21.4572533 17.6970235,20.9503081 18.0998851,20.3795718 L18.0998851,20.3795718 Z M20.0364909,19.4982768 C19.7301305,19.2187363 19.4118642,18.9564282 19.0823812,18.7124804 C19.9834778,16.8691175 20.4950601,14.7113734 20.5572846,12.4439687 L22.9972637,12.4439687 C22.8826527,15.1642402 21.7787154,17.6326057 20.0364909,19.4982768 L20.0364909,19.4982768 Z" id="Shape"></path>
        </g>
    </g>
</svg>