<?xml version="1.0" encoding="UTF-8" standalone="no"?>
<svg width="78px" height="182px" viewBox="0 0 78 182" version="1.1" xmlns="http://www.w3.org/2000/svg" xmlns:xlink="http://www.w3.org/1999/xlink">
    <!-- Generator: Sketch 3.6.1 (26313) - http://www.bohemiancoding.com/sketch -->
    <title>sprite</title>
    <desc>Created with Sketch.</desc>
    <defs></defs>
    <g id="Page-1" stroke="none" stroke-width="1" fill="none" fill-rule="evenodd">
        <g id="sprite">
            <g id="Page-1">
                <g id="sprite">
                    <g id="icon-cart" transform="translate(0.000000, 130.000000)" fill="#000000">
                        <path d="M13,1 C19.627,1 25,6.373 25,13 C25,19.627 19.627,25 13,25 C6.373,25 1,19.627 1,13 C1,6.373 6.373,1 13,1 L13,1 L13,1 Z M13,0 C5.82,0 0,5.82 0,13 C0,20.18 5.82,26 13,26 C20.18,26 26,20.18 26,13 C25.991,5.824 20.176,0.009 13.001,0 L13,0 L13,0 L13,0 Z M18.35,9.952 C18.35,9.482 18.25,9.317 17.756,9.317 L9.214,9.317 L8.96,7.729 L8.96,7.707 C8.96,7.36 8.678,7.078 8.331,7.078 C8.281,7.078 8.233,7.084 8.186,7.095 L6.284,7.094 C6.247,7.085 6.204,7.079 6.16,7.079 C5.87,7.079 5.634,7.314 5.634,7.605 C5.634,7.649 5.639,7.692 5.65,7.732 L5.649,8.046 C5.639,8.084 5.633,8.128 5.633,8.174 C5.633,8.463 5.867,8.697 6.156,8.697 C6.201,8.697 6.245,8.691 6.287,8.68 L7.465,8.681 L8.507,14.713 C8.644,15.087 8.998,15.349 9.412,15.349 C9.429,15.349 9.446,15.349 9.462,15.348 L16.448,15.348 C16.503,15.362 16.565,15.37 16.63,15.37 C17.017,15.37 17.339,15.088 17.4,14.718 L18.35,9.952 L18.35,9.952 Z M16.12,13.762 L9.84,13.762 L9.373,10.9 L16.66,10.9 L16.12,13.762 L16.12,13.762 Z M9.78,17.572 C9.781,18.274 10.349,18.842 11.051,18.842 C11.753,18.842 12.322,18.273 12.322,17.571 C12.322,16.869 11.753,16.3 11.051,16.3 L11.05,16.3 L11.05,16.3 C10.349,16.3 9.78,16.869 9.78,17.57 L9.78,17.572 L9.78,17.572 L9.78,17.572 Z M13.909,17.572 C13.91,18.274 14.478,18.842 15.18,18.842 C15.882,18.842 16.451,18.273 16.451,17.571 C16.451,16.869 15.882,16.3 15.18,16.3 L15.179,16.3 C14.478,16.3 13.909,16.869 13.909,17.57 L13.909,17.572 L13.909,17.572 L13.909,17.572 Z" id="Shape"></path>
                    </g>
                    <g id="icon-cart_hover" transform="translate(26.000000, 130.000000)" fill="#EF0D22">
                        <path d="M13,1 C19.627,1 25,6.373 25,13 C25,19.627 19.627,25 13,25 C6.373,25 1,19.627 1,13 C1,6.373 6.373,1 13,1 L13,1 L13,1 Z M13,0 C5.82,0 0,5.82 0,13 C0,20.18 5.82,26 13,26 C20.18,26 26,20.18 26,13 C25.991,5.824 20.176,0.009 13.001,0 L13,0 L13,0 L13,0 Z M18.35,9.952 C18.35,9.482 18.25,9.317 17.756,9.317 L9.214,9.317 L8.96,7.729 L8.96,7.707 C8.96,7.36 8.678,7.078 8.331,7.078 C8.281,7.078 8.233,7.084 8.186,7.095 L6.284,7.094 C6.247,7.085 6.204,7.079 6.16,7.079 C5.87,7.079 5.634,7.314 5.634,7.605 C5.634,7.649 5.639,7.692 5.65,7.732 L5.649,8.046 C5.639,8.084 5.633,8.128 5.633,8.174 C5.633,8.463 5.867,8.697 6.156,8.697 C6.201,8.697 6.245,8.691 6.287,8.68 L7.465,8.681 L8.507,14.713 C8.644,15.087 8.998,15.349 9.412,15.349 C9.429,15.349 9.446,15.349 9.462,15.348 L16.448,15.348 C16.503,15.362 16.565,15.37 16.63,15.37 C17.017,15.37 17.339,15.088 17.4,14.718 L18.35,9.952 L18.35,9.952 Z M16.12,13.762 L9.84,13.762 L9.373,10.9 L16.66,10.9 L16.12,13.762 L16.12,13.762 Z M9.78,17.572 C9.781,18.274 10.349,18.842 11.051,18.842 C11.753,18.842 12.322,18.273 12.322,17.571 C12.322,16.869 11.753,16.3 11.051,16.3 L11.05,16.3 L11.05,16.3 C10.349,16.3 9.78,16.869 9.78,17.57 L9.78,17.572 L9.78,17.572 L9.78,17.572 Z M13.909,17.572 C13.91,18.274 14.478,18.842 15.18,18.842 C15.882,18.842 16.451,18.273 16.451,17.571 C16.451,16.869 15.882,16.3 15.18,16.3 L15.179,16.3 C14.478,16.3 13.909,16.869 13.909,17.57 L13.909,17.572 L13.909,17.572 L13.909,17.572 Z" id="Shape"></path>
                    </g>
                    <g id="icon-cart_hover" transform="translate(52.000000, 130.000000)" fill="#FFFFFF">
                        <path d="M13,1 C19.627,1 25,6.373 25,13 C25,19.627 19.627,25 13,25 C6.373,25 1,19.627 1,13 C1,6.373 6.373,1 13,1 L13,1 L13,1 Z M13,0 C5.82,0 0,5.82 0,13 C0,20.18 5.82,26 13,26 C20.18,26 26,20.18 26,13 C25.991,5.824 20.176,0.009 13.001,0 L13,0 L13,0 L13,0 Z M18.35,9.952 C18.35,9.482 18.25,9.317 17.756,9.317 L9.214,9.317 L8.96,7.729 L8.96,7.707 C8.96,7.36 8.678,7.078 8.331,7.078 C8.281,7.078 8.233,7.084 8.186,7.095 L6.284,7.094 C6.247,7.085 6.204,7.079 6.16,7.079 C5.87,7.079 5.634,7.314 5.634,7.605 C5.634,7.649 5.639,7.692 5.65,7.732 L5.649,8.046 C5.639,8.084 5.633,8.128 5.633,8.174 C5.633,8.463 5.867,8.697 6.156,8.697 C6.201,8.697 6.245,8.691 6.287,8.68 L7.465,8.681 L8.507,14.713 C8.644,15.087 8.998,15.349 9.412,15.349 C9.429,15.349 9.446,15.349 9.462,15.348 L16.448,15.348 C16.503,15.362 16.565,15.37 16.63,15.37 C17.017,15.37 17.339,15.088 17.4,14.718 L18.35,9.952 L18.35,9.952 Z M16.12,13.762 L9.84,13.762 L9.373,10.9 L16.66,10.9 L16.12,13.762 L16.12,13.762 Z M9.78,17.572 C9.781,18.274 10.349,18.842 11.051,18.842 C11.753,18.842 12.322,18.273 12.322,17.571 C12.322,16.869 11.753,16.3 11.051,16.3 L11.05,16.3 L11.05,16.3 C10.349,16.3 9.78,16.869 9.78,17.57 L9.78,17.572 L9.78,17.572 L9.78,17.572 Z M13.909,17.572 C13.91,18.274 14.478,18.842 15.18,18.842 C15.882,18.842 16.451,18.273 16.451,17.571 C16.451,16.869 15.882,16.3 15.18,16.3 L15.179,16.3 C14.478,16.3 13.909,16.869 13.909,17.57 L13.909,17.572 L13.909,17.572 L13.909,17.572 Z" id="Shape"></path>
                    </g>
                    <g id="icon-fb" transform="translate(0.000000, 52.000000)" fill="#000000">
                        <path d="M13,1 C19.627,1 25,6.373 25,13 C25,19.627 19.627,25 13,25 C6.373,25 1,19.627 1,13 C1,6.373 6.373,1 13,1 L13,1 L13,1 Z M13,0 C5.82,0 0,5.82 0,13 C0,20.18 5.82,26 13,26 C20.18,26 26,20.18 26,13 C25.991,5.824 20.176,0.009 13.001,0 L13,0 L13,0 L13,0 Z M14.632,10.625 C13.962,10.961 14.176,13.125 14.176,13.125 L16.606,13.125 L16.606,15.312 L14.176,15.312 L14.176,25 L11.29,25 L11.29,15.308 L9.5,15.308 L9.5,13.12 L11.32,13.12 C11.306,12.915 11.297,12.675 11.297,12.433 C11.297,11.848 11.345,11.275 11.438,10.716 C11.567,9.67 12.316,8.767 13.324,8.411 C13.89,8.247 14.518,8.156 15.167,8.156 C15.966,8.156 16.732,8.294 17.444,8.547 C17.275,9.16 17.153,9.791 17.032,10.416 C17.032,10.416 15.088,10.074 14.632,10.625 L14.632,10.625 Z" id="Shape"></path>
                    </g>
                    <g id="icon-fb_hover" transform="translate(26.000000, 52.000000)" fill="#EF0D22">
                        <path d="M13,1 C19.627,1 25,6.373 25,13 C25,19.627 19.627,25 13,25 C6.373,25 1,19.627 1,13 C1,6.373 6.373,1 13,1 L13,1 L13,1 Z M13,0 C5.82,0 0,5.82 0,13 C0,20.18 5.82,26 13,26 C20.18,26 26,20.18 26,13 C25.991,5.824 20.176,0.009 13.001,0 L13,0 L13,0 L13,0 Z M14.632,10.625 C13.962,10.961 14.176,13.125 14.176,13.125 L16.606,13.125 L16.606,15.312 L14.176,15.312 L14.176,25 L11.29,25 L11.29,15.308 L9.5,15.308 L9.5,13.12 L11.32,13.12 C11.306,12.915 11.297,12.675 11.297,12.433 C11.297,11.848 11.345,11.275 11.438,10.716 C11.567,9.67 12.316,8.767 13.324,8.411 C13.89,8.247 14.518,8.156 15.167,8.156 C15.966,8.156 16.732,8.294 17.444,8.547 C17.275,9.16 17.153,9.791 17.032,10.416 C17.0320001,10.5000001 15.088,10.074 14.632,10.625 L14.632,10.625 Z" id="Shape"></path>
                    </g>
                    <g id="icon-fb_hover" transform="translate(52.000000, 52.000000)" fill="#FFFFFF">
                        <path d="M13,1 C19.627,1 25,6.373 25,13 C25,19.627 19.627,25 13,25 C6.373,25 1,19.627 1,13 C1,6.373 6.373,1 13,1 L13,1 L13,1 Z M13,0 C5.82,0 0,5.82 0,13 C0,20.18 5.82,26 13,26 C20.18,26 26,20.18 26,13 C25.991,5.824 20.176,0.009 13.001,0 L13,0 L13,0 L13,0 Z M14.632,10.625 C13.962,10.961 14.176,13.125 14.176,13.125 L16.606,13.125 L16.606,15.312 L14.176,15.312 L14.176,25 L11.29,25 L11.29,15.308 L9.5,15.308 L9.5,13.12 L11.32,13.12 C11.306,12.915 11.297,12.675 11.297,12.433 C11.297,11.848 11.345,11.275 11.438,10.716 C11.567,9.67 12.316,8.767 13.324,8.411 C13.89,8.247 14.518,8.156 15.167,8.156 C15.966,8.156 16.732,8.294 17.444,8.547 C17.275,9.16 17.153,9.791 17.032,10.416 C17.0320001,10.5000001 15.088,10.074 14.632,10.625 L14.632,10.625 Z" id="Shape"></path>
                    </g>
                    <g id="icon-insta" transform="translate(0.000000, 26.000000)" fill="#000000">
                        <path d="M13,1 C19.627,1 25,6.373 25,13 C25,19.627 19.627,25 13,25 C6.373,25 1,19.627 1,13 C1,6.373 6.373,1 13,1 L13,1 L13,1 Z M13,0 C5.82,0 0,5.82 0,13 C0,20.18 5.82,26 13,26 C20.18,26 26,20.18 26,13 C25.991,5.824 20.176,0.009 13.001,0 L13,0 L13,0 L13,0 Z M7.344,17.49 L7.344,8.145 C7.352,8.12 7.361,8.095 7.367,8.069 C7.461,7.532 7.865,7.11 8.384,6.992 L8.536,6.954 L17.881,6.954 C17.898,6.961 17.919,6.968 17.941,6.974 C18.487,7.063 18.914,7.469 19.033,7.991 C19.048,8.047 19.059,8.1 19.072,8.143 L19.072,17.49 C19.064,17.51 19.056,17.535 19.05,17.561 C18.95,18.109 18.537,18.533 18.009,18.65 C17.96,18.661 17.92,18.672 17.879,18.682 L8.535,18.682 C8.517,18.674 8.496,18.667 8.474,18.662 C7.927,18.567 7.499,18.158 7.379,17.632 C7.367,17.578 7.355,17.534 7.344,17.49 L7.344,17.49 L7.344,17.49 Z M8.7,11.921 L8.7,12.021 L8.7,16.853 C8.7,16.861 8.699,16.869 8.699,16.878 C8.699,17.129 8.903,17.333 9.154,17.333 C9.17,17.333 9.186,17.332 9.202,17.331 L17.227,17.331 C17.24,17.332 17.255,17.333 17.27,17.333 C17.524,17.333 17.73,17.127 17.73,16.873 C17.73,16.856 17.729,16.839 17.727,16.822 L17.727,12.049 L17.727,11.923 L16.7,11.923 C16.774,12.193 16.816,12.503 16.816,12.824 C16.816,13.638 16.542,14.387 16.082,14.986 C15.46,15.84 14.46,16.4 13.329,16.42 C13.269,16.423 13.203,16.425 13.136,16.425 C12.236,16.425 11.417,16.077 10.807,15.509 C10.059,14.853 9.587,13.892 9.587,12.82 C9.587,12.501 9.629,12.191 9.708,11.896 L8.7,11.921 L8.7,11.921 L8.7,11.921 Z M15.464,12.821 L15.464,12.817 C15.464,11.571 14.454,10.561 13.208,10.561 C11.962,10.561 10.952,11.571 10.952,12.817 C10.952,14.06 11.957,15.068 13.2,15.073 L13.209,15.073 C14.453,15.073 15.462,14.066 15.464,12.822 L15.464,12.821 L15.464,12.821 Z M16.6,8.3 L15.948,8.3 C15.938,8.299 15.926,8.299 15.914,8.299 C15.665,8.299 15.464,8.5 15.464,8.749 L15.464,8.767 C15.458,9.209 15.458,9.65133333 15.464,10.094 C15.464,10.101 15.463,10.109 15.463,10.118 C15.463,10.362 15.66,10.559 15.904,10.559 C15.912,10.559 15.919,10.559 15.927,10.558 C16.369,10.5646667 16.8113333,10.5646667 17.254,10.558 L17.273,10.558 C17.521,10.558 17.722,10.357 17.722,10.109 C17.722,10.097 17.722,10.086 17.721,10.074 L17.721,8.783 C17.722,8.774 17.722,8.764 17.722,8.754 C17.722,8.503 17.518,8.299 17.267,8.299 C17.258,8.299 17.248,8.299 17.239,8.3 L16.6,8.3 L16.6,8.3 L16.6,8.3 Z" id="Shape"></path>
                    </g>
                    <g id="icon-insta_hover" transform="translate(26.000000, 26.000000)" fill="#EF0D22">
                        <path d="M13,1 C19.627,1 25,6.373 25,13 C25,19.627 19.627,25 13,25 C6.373,25 1,19.627 1,13 C1,6.373 6.373,1 13,1 L13,1 L13,1 Z M13,0 C5.82,0 0,5.82 0,13 C0,20.18 5.82,26 13,26 C20.18,26 26,20.18 26,13 C25.991,5.824 20.176,0.009 13.001,0 L13,0 L13,0 L13,0 Z M7.344,17.49 L7.344,8.145 C7.352,8.12 7.361,8.095 7.367,8.069 C7.461,7.532 7.865,7.11 8.384,6.992 L8.536,6.954 L17.881,6.954 C17.898,6.961 17.919,6.968 17.941,6.974 C18.487,7.063 18.914,7.469 19.033,7.991 C19.048,8.047 19.059,8.1 19.072,8.143 L19.072,17.49 C19.064,17.51 19.056,17.535 19.05,17.561 C18.95,18.109 18.537,18.533 18.009,18.65 C17.96,18.661 17.92,18.672 17.879,18.682 L8.535,18.682 C8.517,18.674 8.496,18.667 8.474,18.662 C7.927,18.567 7.499,18.158 7.379,17.632 C7.367,17.578 7.355,17.534 7.344,17.49 L7.344,17.49 L7.344,17.49 Z M8.7,11.921 L8.7,12.021 L8.7,16.853 C8.7,16.861 8.699,16.869 8.699,16.878 C8.699,17.129 8.903,17.333 9.154,17.333 C9.17,17.333 9.186,17.332 9.202,17.331 L17.227,17.331 C17.24,17.332 17.255,17.333 17.27,17.333 C17.524,17.333 17.73,17.127 17.73,16.873 C17.73,16.856 17.729,16.839 17.727,16.822 L17.727,12.049 L17.727,11.923 L16.7,11.923 C16.774,12.193 16.816,12.503 16.816,12.824 C16.816,13.638 16.542,14.387 16.082,14.986 C15.46,15.84 14.46,16.4 13.329,16.42 C13.269,16.423 13.203,16.425 13.136,16.425 C12.236,16.425 11.417,16.077 10.807,15.509 C10.059,14.853 9.587,13.892 9.587,12.82 C9.587,12.501 9.629,12.191 9.708,11.896 L8.7,11.921 L8.7,11.921 L8.7,11.921 Z M15.464,12.821 L15.464,12.817 C15.464,11.571 14.454,10.561 13.208,10.561 C11.962,10.561 10.952,11.571 10.952,12.817 C10.952,14.06 11.957,15.068 13.2,15.073 L13.209,15.073 C14.453,15.073 15.462,14.066 15.464,12.822 L15.464,12.821 L15.464,12.821 Z M16.6,8.3 L15.948,8.3 C15.938,8.299 15.926,8.299 15.914,8.299 C15.665,8.299 15.464,8.5 15.464,8.749 L15.464,8.767 C15.458,9.209 15.458,9.65133333 15.464,10.094 C15.464,10.101 15.463,10.109 15.463,10.118 C15.463,10.362 15.66,10.559 15.904,10.559 C15.912,10.559 15.919,10.559 15.927,10.558 C16.369,10.5646667 16.8113333,10.5646667 17.254,10.558 L17.273,10.558 C17.521,10.558 17.722,10.357 17.722,10.109 C17.722,10.097 17.722,10.086 17.721,10.074 L17.721,8.783 C17.722,8.774 17.722,8.764 17.722,8.754 C17.722,8.503 17.518,8.299 17.267,8.299 C17.258,8.299 17.248,8.299 17.239,8.3 L16.6,8.3 L16.6,8.3 L16.6,8.3 Z" id="Shape"></path>
                    </g>
                    <g id="icon-insta_hover" transform="translate(52.000000, 26.000000)" fill="#FFFFFF">
                        <path d="M13,1 C19.627,1 25,6.373 25,13 C25,19.627 19.627,25 13,25 C6.373,25 1,19.627 1,13 C1,6.373 6.373,1 13,1 L13,1 L13,1 Z M13,0 C5.82,0 0,5.82 0,13 C0,20.18 5.82,26 13,26 C20.18,26 26,20.18 26,13 C25.991,5.824 20.176,0.009 13.001,0 L13,0 L13,0 L13,0 Z M7.344,17.49 L7.344,8.145 C7.352,8.12 7.361,8.095 7.367,8.069 C7.461,7.532 7.865,7.11 8.384,6.992 L8.536,6.954 L17.881,6.954 C17.898,6.961 17.919,6.968 17.941,6.974 C18.487,7.063 18.914,7.469 19.033,7.991 C19.048,8.047 19.059,8.1 19.072,8.143 L19.072,17.49 C19.064,17.51 19.056,17.535 19.05,17.561 C18.95,18.109 18.537,18.533 18.009,18.65 C17.96,18.661 17.92,18.672 17.879,18.682 L8.535,18.682 C8.517,18.674 8.496,18.667 8.474,18.662 C7.927,18.567 7.499,18.158 7.379,17.632 C7.367,17.578 7.355,17.534 7.344,17.49 L7.344,17.49 L7.344,17.49 Z M8.7,11.921 L8.7,12.021 L8.7,16.853 C8.7,16.861 8.699,16.869 8.699,16.878 C8.699,17.129 8.903,17.333 9.154,17.333 C9.17,17.333 9.186,17.332 9.202,17.331 L17.227,17.331 C17.24,17.332 17.255,17.333 17.27,17.333 C17.524,17.333 17.73,17.127 17.73,16.873 C17.73,16.856 17.729,16.839 17.727,16.822 L17.727,12.049 L17.727,11.923 L16.7,11.923 C16.774,12.193 16.816,12.503 16.816,12.824 C16.816,13.638 16.542,14.387 16.082,14.986 C15.46,15.84 14.46,16.4 13.329,16.42 C13.269,16.423 13.203,16.425 13.136,16.425 C12.236,16.425 11.417,16.077 10.807,15.509 C10.059,14.853 9.587,13.892 9.587,12.82 C9.587,12.501 9.629,12.191 9.708,11.896 L8.7,11.921 L8.7,11.921 L8.7,11.921 Z M15.464,12.821 L15.464,12.817 C15.464,11.571 14.454,10.561 13.208,10.561 C11.962,10.561 10.952,11.571 10.952,12.817 C10.952,14.06 11.957,15.068 13.2,15.073 L13.209,15.073 C14.453,15.073 15.462,14.066 15.464,12.822 L15.464,12.821 L15.464,12.821 Z M16.6,8.3 L15.948,8.3 C15.938,8.299 15.926,8.299 15.914,8.299 C15.665,8.299 15.464,8.5 15.464,8.749 L15.464,8.767 C15.458,9.209 15.458,9.65133333 15.464,10.094 C15.464,10.101 15.463,10.109 15.463,10.118 C15.463,10.362 15.66,10.559 15.904,10.559 C15.912,10.559 15.919,10.559 15.927,10.558 C16.369,10.5646667 16.8113333,10.5646667 17.254,10.558 L17.273,10.558 C17.521,10.558 17.722,10.357 17.722,10.109 C17.722,10.097 17.722,10.086 17.721,10.074 L17.721,8.783 C17.722,8.774 17.722,8.764 17.722,8.754 C17.722,8.503 17.518,8.299 17.267,8.299 C17.258,8.299 17.248,8.299 17.239,8.3 L16.6,8.3 L16.6,8.3 L16.6,8.3 Z" id="Shape"></path>
                    </g>
                    <g id="icon-search" transform="translate(0.000000, 156.000000)" fill="#000000">
                        <path d="M13,1 C19.6,1 25,6.4 25,13 C25,19.6 19.6,25 13,25 C6.4,25 1,19.6 1,13 C1,6.4 6.4,1 13,1 L13,1 L13,1 Z M13,0 C5.8,0 0,5.8 0,13 C0,20.2 5.8,26 13,26 C20.2,26 26,20.2 26,13 C26,5.8 20.2,0 13,0 L13,0 L13,0 L13,0 Z" id="Shape"></path>
                        <path d="M16.9,11.9 C16.9,14.661 14.661,16.9 11.9,16.9 C9.139,16.9 6.9,14.661 6.9,11.9 C6.9,9.139 9.139,6.9 11.9,6.9 C14.661,6.9 16.9,9.139 16.9,11.9 L16.9,11.9 L16.9,11.9 Z M16.1,11.9 C16.1,14.22 14.22,16.1 11.9,16.1 C9.58,16.1 7.7,14.22 7.7,11.9 C7.7,9.58 9.58,7.7 11.9,7.7 C14.22,7.7 16.1,9.58 16.1,11.9 L16.1,11.9 L16.1,11.9 Z" id="Combined-Shape"></path>
                        <path d="M17.9,18.9 L15,15.9 C14.7,15.6 14.7,15.2 15,15 L15,15 C15.3,14.7 15.7,14.7 15.9,15 L18.8,17.9 C19.1,18.2 19.1,18.6 18.8,18.8 L18.8,18.8 C18.6,19.1 18.2,19.1 17.9,18.9 L17.9,18.9 L17.9,18.9 Z" id="Shape"></path>
                    </g>
                    <g id="icon-search_hover" transform="translate(26.000000, 156.000000)" fill="#EF0D22">
                        <path d="M13,1 C19.6,1 25,6.4 25,13 C25,19.6 19.6,25 13,25 C6.4,25 1,19.6 1,13 C1,6.4 6.4,1 13,1 L13,1 L13,1 Z M13,0 C5.8,0 0,5.8 0,13 C0,20.2 5.8,26 13,26 C20.2,26 26,20.2 26,13 C26,5.8 20.2,0 13,0 L13,0 L13,0 L13,0 Z" id="Shape"></path>
                        <path d="M16.9,11.9 C16.9,14.661 14.661,16.9 11.9,16.9 C9.139,16.9 6.9,14.661 6.9,11.9 C6.9,9.139 9.139,6.9 11.9,6.9 C14.661,6.9 16.9,9.139 16.9,11.9 L16.9,11.9 L16.9,11.9 Z M16.1,11.9 C16.1,14.22 14.22,16.1 11.9,16.1 C9.58,16.1 7.7,14.22 7.7,11.9 C7.7,9.58 9.58,7.7 11.9,7.7 C14.22,7.7 16.1,9.58 16.1,11.9 L16.1,11.9 L16.1,11.9 Z" id="Combined-Shape"></path>
                        <path d="M17.9,18.9 L15,15.9 C14.7,15.6 14.7,15.2 15,15 L15,15 C15.3,14.7 15.7,14.7 15.9,15 L18.8,17.9 C19.1,18.2 19.1,18.6 18.8,18.8 L18.8,18.8 C18.6,19.1 18.2,19.1 17.9,18.9 L17.9,18.9 L17.9,18.9 Z" id="Shape"></path>
                    </g>
                    <g id="icon-search_hover" transform="translate(52.000000, 156.000000)" fill="#FFFFFF">
                        <path d="M13,1 C19.6,1 25,6.4 25,13 C25,19.6 19.6,25 13,25 C6.4,25 1,19.6 1,13 C1,6.4 6.4,1 13,1 L13,1 L13,1 Z M13,0 C5.8,0 0,5.8 0,13 C0,20.2 5.8,26 13,26 C20.2,26 26,20.2 26,13 C26,5.8 20.2,0 13,0 L13,0 L13,0 L13,0 Z" id="Shape"></path>
                        <path d="M16.9,11.9 C16.9,14.661 14.661,16.9 11.9,16.9 C9.139,16.9 6.9,14.661 6.9,11.9 C6.9,9.139 9.139,6.9 11.9,6.9 C14.661,6.9 16.9,9.139 16.9,11.9 L16.9,11.9 L16.9,11.9 Z M16.1,11.9 C16.1,14.22 14.22,16.1 11.9,16.1 C9.58,16.1 7.7,14.22 7.7,11.9 C7.7,9.58 9.58,7.7 11.9,7.7 C14.22,7.7 16.1,9.58 16.1,11.9 L16.1,11.9 L16.1,11.9 Z" id="Combined-Shape"></path>
                        <path d="M17.9,18.9 L15,15.9 C14.7,15.6 14.7,15.2 15,15 L15,15 C15.3,14.7 15.7,14.7 15.9,15 L18.8,17.9 C19.1,18.2 19.1,18.6 18.8,18.8 L18.8,18.8 C18.6,19.1 18.2,19.1 17.9,18.9 L17.9,18.9 L17.9,18.9 Z" id="Shape"></path>
                    </g>
                    <g id="icon-vk" fill="#000000">
                        <path d="M13,1 C19.627,1 25,6.373 25,13 C25,19.627 19.627,25 13,25 C6.373,25 1,19.627 1,13 C1,6.373 6.373,1 13,1 L13,1 L13,1 Z M13,0 C5.82,0 0,5.82 0,13 C0,20.18 5.82,26 13,26 C20.18,26 26,20.18 26,13 C25.991,5.824 20.176,0.009 13.001,0 L13,0 L13,0 L13,0 Z M16.448,12.924 C16.093,12.557 15.628,12.298 15.105,12.202 L15.09,12.147 C15.477,11.988 15.793,11.723 16.009,11.387 C16.224,11.052 16.349,10.652 16.349,10.224 L16.349,10.187 L16.349,10.147 C16.349,9.789 16.259,9.452 16.1,9.158 C15.933,8.866 15.683,8.624 15.381,8.468 C15.09,8.308 14.763,8.195 14.415,8.142 C14,8.09 13.538,8.061 13.069,8.061 C12.999,8.061 12.93,8.062 12.861,8.063 L9.64,8.063 L9.64,17.209 L13.298,17.209 C13.339,17.21 13.388,17.211 13.437,17.211 C13.945,17.211 14.437,17.148 14.908,17.029 C15.302,16.914 15.68,16.716 16.006,16.456 C16.29,16.234 16.524,15.948 16.687,15.621 C16.857,15.273 16.952,14.881 16.952,14.466 C16.952,14.445 16.952,14.425 16.951,14.404 C16.953,14.375 16.954,14.337 16.954,14.299 C16.954,13.772 16.76,13.29 16.439,12.921 L16.441,12.924 L16.448,12.924 L16.448,12.924 Z M13.991,15.353 C13.786,15.447 13.547,15.507 13.295,15.519 C13.063,15.527 12.648,15.531 12.05,15.531 L11.927,15.531 L11.927,13.24 L12.351,13.24 C12.7603333,13.24 13.087,13.243 13.331,13.249 L13.348,13.249 C13.547,13.249 13.739,13.282 13.917,13.342 C14.115,13.406 14.291,13.532 14.419,13.698 C14.53,13.87 14.595,14.077 14.595,14.3 C14.595,14.322 14.594,14.345 14.593,14.367 L14.593,14.385 C14.593,14.594 14.54,14.791 14.446,14.963 C14.346,15.138 14.187,15.277 13.997,15.355 L13.991,15.357 L13.991,15.353 L13.991,15.353 Z M13.53,11.533 C13.388,11.603 13.222,11.65 13.046,11.662 C12.886,11.67 12.6093333,11.674 12.216,11.674 L11.927,11.674 L11.927,9.739 L12.087,9.739 C12.4963333,9.739 12.8043333,9.742 13.011,9.748 C13.205,9.749 13.39,9.789 13.559,9.859 C13.705,9.923 13.829,10.041 13.901,10.189 C13.972,10.325 14.014,10.481 14.017,10.646 C14.017,10.658 14.018,10.67 14.018,10.683 C14.018,10.861 13.981,11.03 13.914,11.183 C13.836,11.336 13.703,11.461 13.541,11.529 L13.536,11.531 L13.53,11.533 L13.53,11.533 Z" id="Shape"></path>
                    </g>
                    <g id="icon-vk_hover" transform="translate(26.000000, 0.000000)" fill="#EF0D22">
                        <path d="M13,1 C19.627,1 25,6.373 25,13 C25,19.627 19.627,25 13,25 C6.373,25 1,19.627 1,13 C1,6.373 6.373,1 13,1 L13,1 L13,1 Z M13,0 C5.82,0 0,5.82 0,13 C0,20.18 5.82,26 13,26 C20.18,26 26,20.18 26,13 C25.991,5.824 20.176,0.009 13.001,0 L13,0 L13,0 L13,0 Z M16.448,12.924 C16.093,12.557 15.628,12.298 15.105,12.202 L15.09,12.147 C15.477,11.988 15.793,11.723 16.009,11.387 C16.224,11.052 16.349,10.652 16.349,10.224 L16.349,10.187 L16.349,10.147 C16.349,9.789 16.259,9.452 16.1,9.158 C15.933,8.866 15.683,8.624 15.381,8.468 C15.09,8.308 14.763,8.195 14.415,8.142 C14,8.09 13.538,8.061 13.069,8.061 C12.999,8.061 12.93,8.062 12.861,8.063 L9.64,8.063 L9.64,17.209 L13.298,17.209 C13.339,17.21 13.388,17.211 13.437,17.211 C13.945,17.211 14.437,17.148 14.908,17.029 C15.302,16.914 15.68,16.716 16.006,16.456 C16.29,16.234 16.524,15.948 16.687,15.621 C16.857,15.273 16.952,14.881 16.952,14.466 C16.952,14.445 16.952,14.425 16.951,14.404 C16.953,14.375 16.954,14.337 16.954,14.299 C16.954,13.772 16.76,13.29 16.439,12.921 L16.441,12.924 L16.448,12.924 L16.448,12.924 Z M13.991,15.353 C13.786,15.447 13.547,15.507 13.295,15.519 C13.063,15.527 12.648,15.531 12.05,15.531 L11.927,15.531 L11.927,13.24 L12.351,13.24 C12.7603333,13.24 13.087,13.243 13.331,13.249 L13.348,13.249 C13.547,13.249 13.739,13.282 13.917,13.342 C14.115,13.406 14.291,13.532 14.419,13.698 C14.53,13.87 14.595,14.077 14.595,14.3 C14.595,14.322 14.594,14.345 14.593,14.367 L14.593,14.385 C14.593,14.594 14.54,14.791 14.446,14.963 C14.346,15.138 14.187,15.277 13.997,15.355 L13.991,15.357 L13.991,15.353 L13.991,15.353 Z M13.53,11.533 C13.388,11.603 13.222,11.65 13.046,11.662 C12.886,11.67 12.6093333,11.674 12.216,11.674 L11.927,11.674 L11.927,9.739 L12.087,9.739 C12.4963333,9.739 12.8043333,9.742 13.011,9.748 C13.205,9.749 13.39,9.789 13.559,9.859 C13.705,9.923 13.829,10.041 13.901,10.189 C13.972,10.325 14.014,10.481 14.017,10.646 C14.017,10.658 14.018,10.67 14.018,10.683 C14.018,10.861 13.981,11.03 13.914,11.183 C13.836,11.336 13.703,11.461 13.541,11.529 L13.536,11.531 L13.53,11.533 L13.53,11.533 Z" id="Shape"></path>
                    </g>
                    <g id="icon-vk_hover" transform="translate(52.000000, 0.000000)" fill="#FFFFFF">
                        <path d="M13,1 C19.627,1 25,6.373 25,13 C25,19.627 19.627,25 13,25 C6.373,25 1,19.627 1,13 C1,6.373 6.373,1 13,1 L13,1 L13,1 Z M13,0 C5.82,0 0,5.82 0,13 C0,20.18 5.82,26 13,26 C20.18,26 26,20.18 26,13 C25.991,5.824 20.176,0.009 13.001,0 L13,0 L13,0 L13,0 Z M16.448,12.924 C16.093,12.557 15.628,12.298 15.105,12.202 L15.09,12.147 C15.477,11.988 15.793,11.723 16.009,11.387 C16.224,11.052 16.349,10.652 16.349,10.224 L16.349,10.187 L16.349,10.147 C16.349,9.789 16.259,9.452 16.1,9.158 C15.933,8.866 15.683,8.624 15.381,8.468 C15.09,8.308 14.763,8.195 14.415,8.142 C14,8.09 13.538,8.061 13.069,8.061 C12.999,8.061 12.93,8.062 12.861,8.063 L9.64,8.063 L9.64,17.209 L13.298,17.209 C13.339,17.21 13.388,17.211 13.437,17.211 C13.945,17.211 14.437,17.148 14.908,17.029 C15.302,16.914 15.68,16.716 16.006,16.456 C16.29,16.234 16.524,15.948 16.687,15.621 C16.857,15.273 16.952,14.881 16.952,14.466 C16.952,14.445 16.952,14.425 16.951,14.404 C16.953,14.375 16.954,14.337 16.954,14.299 C16.954,13.772 16.76,13.29 16.439,12.921 L16.441,12.924 L16.448,12.924 L16.448,12.924 Z M13.991,15.353 C13.786,15.447 13.547,15.507 13.295,15.519 C13.063,15.527 12.648,15.531 12.05,15.531 L11.927,15.531 L11.927,13.24 L12.351,13.24 C12.7603333,13.24 13.087,13.243 13.331,13.249 L13.348,13.249 C13.547,13.249 13.739,13.282 13.917,13.342 C14.115,13.406 14.291,13.532 14.419,13.698 C14.53,13.87 14.595,14.077 14.595,14.3 C14.595,14.322 14.594,14.345 14.593,14.367 L14.593,14.385 C14.593,14.594 14.54,14.791 14.446,14.963 C14.346,15.138 14.187,15.277 13.997,15.355 L13.991,15.357 L13.991,15.353 L13.991,15.353 Z M13.53,11.533 C13.388,11.603 13.222,11.65 13.046,11.662 C12.886,11.67 12.6093333,11.674 12.216,11.674 L11.927,11.674 L11.927,9.739 L12.087,9.739 C12.4963333,9.739 12.8043333,9.742 13.011,9.748 C13.205,9.749 13.39,9.789 13.559,9.859 C13.705,9.923 13.829,10.041 13.901,10.189 C13.972,10.325 14.014,10.481 14.017,10.646 C14.017,10.658 14.018,10.67 14.018,10.683 C14.018,10.861 13.981,11.03 13.914,11.183 C13.836,11.336 13.703,11.461 13.541,11.529 L13.536,11.531 L13.53,11.533 L13.53,11.533 Z" id="Shape"></path>
                    </g>
                    <g id="icon-youtube" transform="translate(0.000000, 78.000000)" fill="#000000">
                        <path d="M13,1 C19.627,1 25,6.373 25,13 C25,19.627 19.627,25 13,25 C6.373,25 1,19.627 1,13 C1,6.373 6.373,1 13,1 L13,1 L13,1 Z M13,0 C5.82,0 0,5.82 0,13 C0,20.18 5.82,26 13,26 C20.18,26 26,20.18 26,13 C25.991,5.824 20.176,0.009 13.001,0 L13,0 L13,0 L13,0 Z M18.606,14.034 L10.206,19.094 C10.097,19.157 9.966,19.195 9.827,19.195 C9.694,19.195 9.569,19.161 9.46,19.101 C9.238,18.99 9.081,18.766 9.064,18.505 L9.064,8.386 C9.1,8.001 9.421,7.702 9.813,7.702 C9.95,7.702 10.078,7.739 10.189,7.802 L18.594,12.86 C18.797,12.979 18.932,13.197 18.932,13.445 L18.932,13.448 L18.932,13.462 C18.932,13.704 18.802,13.916 18.609,14.032 L18.606,14.034 L18.606,14.034 Z" id="Shape"></path>
                    </g>
                    <g id="icon-youtube_hover" transform="translate(26.000000, 78.000000)" fill="#EF0D22">
                        <path d="M13,1 C19.627,1 25,6.373 25,13 C25,19.627 19.627,25 13,25 C6.373,25 1,19.627 1,13 C1,6.373 6.373,1 13,1 L13,1 L13,1 Z M13,0 C5.82,0 0,5.82 0,13 C0,20.18 5.82,26 13,26 C20.18,26 26,20.18 26,13 C25.991,5.824 20.176,0.009 13.001,0 L13,0 L13,0 L13,0 Z M18.606,14.034 L10.206,19.094 C10.097,19.157 9.966,19.195 9.827,19.195 C9.694,19.195 9.569,19.161 9.46,19.101 C9.238,18.99 9.081,18.766 9.064,18.505 L9.064,8.386 C9.1,8.001 9.421,7.702 9.813,7.702 C9.95,7.702 10.078,7.739 10.189,7.802 L18.594,12.86 C18.797,12.979 18.932,13.197 18.932,13.445 L18.932,13.448 L18.932,13.462 C18.932,13.704 18.802,13.916 18.609,14.032 L18.606,14.034 L18.606,14.034 Z" id="Shape"></path>
                    </g>
                    <g id="icon-youtube_hover" transform="translate(52.000000, 78.000000)" fill="#FFFFFF">
                        <path d="M13,1 C19.627,1 25,6.373 25,13 C25,19.627 19.627,25 13,25 C6.373,25 1,19.627 1,13 C1,6.373 6.373,1 13,1 L13,1 L13,1 Z M13,0 C5.82,0 0,5.82 0,13 C0,20.18 5.82,26 13,26 C20.18,26 26,20.18 26,13 C25.991,5.824 20.176,0.009 13.001,0 L13,0 L13,0 L13,0 Z M18.606,14.034 L10.206,19.094 C10.097,19.157 9.966,19.195 9.827,19.195 C9.694,19.195 9.569,19.161 9.46,19.101 C9.238,18.99 9.081,18.766 9.064,18.505 L9.064,8.386 C9.1,8.001 9.421,7.702 9.813,7.702 C9.95,7.702 10.078,7.739 10.189,7.802 L18.594,12.86 C18.797,12.979 18.932,13.197 18.932,13.445 L18.932,13.448 L18.932,13.462 C18.932,13.704 18.802,13.916 18.609,14.032 L18.606,14.034 L18.606,14.034 Z" id="Shape"></path>
                    </g>
                    <g id="icon-wishlist" transform="translate(0.000000, 104.000000)" fill="#000000">
                        <path d="M13,0 C5.832,0 0,5.832 0,13 C0,20.168 5.832,26 13,26 C20.168,26 26,20.168 26,13 C26,5.832 20.168,0 13,0 M13,1 C19.627,1 25,6.373 25,13 C25,19.627 19.627,25 13,25 C6.373,25 1,19.627 1,13 C1,6.373 6.373,1 13,1" id="Fill-1"></path>
                        <path d="M18.3086,11.6884 L15.3056,13.9654 L16.3966,17.5694 C16.4376,17.7044 16.3906,17.8444 16.2816,17.9234 C16.1656,18.0054 16.0166,18.0064 15.9036,17.9294 L12.8106,15.7794 L9.7176,17.9304 C9.6076,18.0074 9.4536,18.0054 9.3446,17.9264 C9.2316,17.8444 9.1846,17.7044 9.2256,17.5714 L10.3156,13.9654 L7.3126,11.6874 C7.2036,11.6054 7.1586,11.4604 7.2006,11.3314 C7.2426,11.2014 7.3636,11.1114 7.5016,11.1084 L11.2686,11.0324 L12.5066,7.4744 C12.5516,7.3434 12.6736,7.2564 12.8116,7.2564 C12.9476,7.2564 13.0706,7.3444 13.1166,7.4744 L14.3526,11.0324 L18.1206,11.1084 C18.2576,11.1114 18.3786,11.2014 18.4206,11.3294 C18.4626,11.4594 18.4166,11.6064 18.3086,11.6884 M19.5266,10.9704 C19.3306,10.3724 18.7746,9.9604 18.1446,9.9464 L15.1846,9.8874 L14.2136,7.0904 C14.0036,6.4944 13.4406,6.0944 12.8106,6.0944 C12.1796,6.0944 11.6166,6.4954 11.4086,7.0924 L10.4366,9.8874 L7.4766,9.9464 C6.8456,9.9604 6.2906,10.3724 6.0936,10.9744 C5.9016,11.5764 6.1096,12.2364 6.6116,12.6144 L8.9686,14.4024 L8.1126,17.2344 C7.9296,17.8394 8.1506,18.4954 8.6616,18.8664 C9.1646,19.2314 9.8766,19.2374 10.3826,18.8834 L12.8116,17.1944 L15.2416,18.8844 C15.4936,19.0584 15.7866,19.1504 16.0886,19.1504 C16.3996,19.1504 16.7006,19.0534 16.9616,18.8664 C17.4706,18.4964 17.6916,17.8414 17.5096,17.2344 L16.6526,14.4024 L19.0106,12.6144 C19.5136,12.2334 19.7206,11.5744 19.5266,10.9704" id="Fill-3"></path>
                    </g>
                    <g id="icon-wishlist_hover" transform="translate(26.000000, 104.000000)" fill="#EF0D22">
                        <path d="M13,0 C5.832,0 0,5.832 0,13 C0,20.168 5.832,26 13,26 C20.168,26 26,20.168 26,13 C26,5.832 20.168,0 13,0 M13,1 C19.627,1 25,6.373 25,13 C25,19.627 19.627,25 13,25 C6.373,25 1,19.627 1,13 C1,6.373 6.373,1 13,1" id="Fill-1"></path>
                        <path d="M18.3086,11.6884 L15.3056,13.9654 L16.3966,17.5694 C16.4376,17.7044 16.3906,17.8444 16.2816,17.9234 C16.1656,18.0054 16.0166,18.0064 15.9036,17.9294 L12.8106,15.7794 L9.7176,17.9304 C9.6076,18.0074 9.4536,18.0054 9.3446,17.9264 C9.2316,17.8444 9.1846,17.7044 9.2256,17.5714 L10.3156,13.9654 L7.3126,11.6874 C7.2036,11.6054 7.1586,11.4604 7.2006,11.3314 C7.2426,11.2014 7.3636,11.1114 7.5016,11.1084 L11.2686,11.0324 L12.5066,7.4744 C12.5516,7.3434 12.6736,7.2564 12.8116,7.2564 C12.9476,7.2564 13.0706,7.3444 13.1166,7.4744 L14.3526,11.0324 L18.1206,11.1084 C18.2576,11.1114 18.3786,11.2014 18.4206,11.3294 C18.4626,11.4594 18.4166,11.6064 18.3086,11.6884 M19.5266,10.9704 C19.3306,10.3724 18.7746,9.9604 18.1446,9.9464 L15.1846,9.8874 L14.2136,7.0904 C14.0036,6.4944 13.4406,6.0944 12.8106,6.0944 C12.1796,6.0944 11.6166,6.4954 11.4086,7.0924 L10.4366,9.8874 L7.4766,9.9464 C6.8456,9.9604 6.2906,10.3724 6.0936,10.9744 C5.9016,11.5764 6.1096,12.2364 6.6116,12.6144 L8.9686,14.4024 L8.1126,17.2344 C7.9296,17.8394 8.1506,18.4954 8.6616,18.8664 C9.1646,19.2314 9.8766,19.2374 10.3826,18.8834 L12.8116,17.1944 L15.2416,18.8844 C15.4936,19.0584 15.7866,19.1504 16.0886,19.1504 C16.3996,19.1504 16.7006,19.0534 16.9616,18.8664 C17.4706,18.4964 17.6916,17.8414 17.5096,17.2344 L16.6526,14.4024 L19.0106,12.6144 C19.5136,12.2334 19.7206,11.5744 19.5266,10.9704" id="Fill-3"></path>
                    </g>
                    <g id="icon-wishlist_hover" transform="translate(52.000000, 104.000000)" fill="#FFFFFF">
                        <path d="M13,0 C5.832,0 0,5.832 0,13 C0,20.168 5.832,26 13,26 C20.168,26 26,20.168 26,13 C26,5.832 20.168,0 13,0 M13,1 C19.627,1 25,6.373 25,13 C25,19.627 19.627,25 13,25 C6.373,25 1,19.627 1,13 C1,6.373 6.373,1 13,1" id="Fill-1"></path>
                        <path d="M18.3086,11.6884 L15.3056,13.9654 L16.3966,17.5694 C16.4376,17.7044 16.3906,17.8444 16.2816,17.9234 C16.1656,18.0054 16.0166,18.0064 15.9036,17.9294 L12.8106,15.7794 L9.7176,17.9304 C9.6076,18.0074 9.4536,18.0054 9.3446,17.9264 C9.2316,17.8444 9.1846,17.7044 9.2256,17.5714 L10.3156,13.9654 L7.3126,11.6874 C7.2036,11.6054 7.1586,11.4604 7.2006,11.3314 C7.2426,11.2014 7.3636,11.1114 7.5016,11.1084 L11.2686,11.0324 L12.5066,7.4744 C12.5516,7.3434 12.6736,7.2564 12.8116,7.2564 C12.9476,7.2564 13.0706,7.3444 13.1166,7.4744 L14.3526,11.0324 L18.1206,11.1084 C18.2576,11.1114 18.3786,11.2014 18.4206,11.3294 C18.4626,11.4594 18.4166,11.6064 18.3086,11.6884 M19.5266,10.9704 C19.3306,10.3724 18.7746,9.9604 18.1446,9.9464 L15.1846,9.8874 L14.2136,7.0904 C14.0036,6.4944 13.4406,6.0944 12.8106,6.0944 C12.1796,6.0944 11.6166,6.4954 11.4086,7.0924 L10.4366,9.8874 L7.4766,9.9464 C6.8456,9.9604 6.2906,10.3724 6.0936,10.9744 C5.9016,11.5764 6.1096,12.2364 6.6116,12.6144 L8.9686,14.4024 L8.1126,17.2344 C7.9296,17.8394 8.1506,18.4954 8.6616,18.8664 C9.1646,19.2314 9.8766,19.2374 10.3826,18.8834 L12.8116,17.1944 L15.2416,18.8844 C15.4936,19.0584 15.7866,19.1504 16.0886,19.1504 C16.3996,19.1504 16.7006,19.0534 16.9616,18.8664 C17.4706,18.4964 17.6916,17.8414 17.5096,17.2344 L16.6526,14.4024 L19.0106,12.6144 C19.5136,12.2334 19.7206,11.5744 19.5266,10.9704" id="Fill-3"></path>
                    </g>
                </g>
            </g>
        </g>
    </g>
</svg>