<?xml version="1.0" encoding="UTF-8" standalone="no"?>
<svg width="12px" height="19px" viewBox="0 0 12 19" version="1.1" xmlns="http://www.w3.org/2000/svg" xmlns:xlink="http://www.w3.org/1999/xlink">
    <!-- Generator: Sketch 3.6.1 (26313) - http://www.bohemiancoding.com/sketch -->
    <title>placeholder</title>
    <desc>Created with Sketch.</desc>
    <defs></defs>
    <g id="Page-1" stroke="none" stroke-width="1" fill="none" fill-rule="evenodd">
        <g id="placeholder" fill="#D80027">
            <g id="Group">
                <path d="M6.04944,9.87573529 C4.54656,9.87573529 3.32352,8.47058824 3.32352,6.74338235 C3.32352,5.01617647 4.54608,3.61102941 6.04944,3.61102941 C7.5528,3.61102941 8.77536,5.01617647 8.77536,6.74338235 C8.77536,8.47058824 7.55232,9.87573529 6.04944,9.87573529 L6.04944,9.87573529 Z M6.04944,4.16305147 C4.81104,4.16305147 3.80352,5.32058824 3.80352,6.74393382 C3.80352,8.16727941 4.81104,9.32481618 6.04944,9.32481618 C7.28784,9.32481618 8.29536,8.16727941 8.29536,6.74393382 C8.29536,5.32058824 7.28784,4.16305147 6.04944,4.16305147 L6.04944,4.16305147 Z" id="Shape"></path>
                <path d="M6.04944,18.3115809 C5.9784,18.3115809 5.9112,18.2757353 5.8656,18.2128676 C5.63328,17.8946691 0.18048,10.3737132 0.18048,6.74393382 C0.18048,3.02536765 2.81328,0 6.04944,0 C9.2856,0 11.9184,3.02536765 11.9184,6.74393382 C11.9184,10.3742647 6.4656,17.8946691 6.23376,18.2134191 C6.18768,18.2757353 6.12,18.3115809 6.04944,18.3115809 L6.04944,18.3115809 Z M6.04944,0.551470588 C3.07776,0.551470588 0.66048,3.32922794 0.66048,6.74393382 C0.66048,9.81617647 5.08416,16.2375 6.04944,17.6012868 C7.01424,16.2369485 11.4384,9.815625 11.4384,6.74393382 C11.43792,3.32922794 9.02064,0.551470588 6.04944,0.551470588 L6.04944,0.551470588 Z" id="Shape"></path>
            </g>
        </g>
    </g>
</svg>