<svg width="88" height="20" viewBox="0 0 88 20" fill="none" xmlns="http://www.w3.org/2000/svg">
<path fill-rule="evenodd" clip-rule="evenodd" d="M0.502772 19.6005C0.208713 19.3298 0.0339309 18.9535 0.0166952 18.5541V16.6645H41.6115V19.9988H1.58563C1.1862 20.0145 0.79683 19.8713 0.502772 19.6005ZM39.1177 3.8616C39.386 3.6845 39.7018 3.59331 40.0232 3.60017C40.4277 3.58402 40.8221 3.72886 41.1199 4.00297C41.4178 4.27707 41.5949 4.65808 41.6123 5.06249V15.3181C41.6114 15.3923 41.5959 15.4656 41.5666 15.5338C41.5374 15.602 41.4949 15.6638 41.4418 15.7156C41.3886 15.7674 41.3257 15.8081 41.2567 15.8356C41.1877 15.863 41.114 15.8766 41.0398 15.8755H0.00746128C0.00746128 15.7958 0.00579796 15.7104 0.00404201 15.6202C-0.0157364 14.6044 -0.0472686 12.9848 2.15394 12.2809C3.19764 11.9483 4.26853 11.5825 5.49304 11.1642C6.51502 10.815 7.644 10.4294 8.95349 9.99594H8.89221C9.6254 9.78205 9.68337 9.55985 9.74946 9.3065C9.80217 9.10445 9.86005 8.88258 10.2697 8.62932L11.9486 7.79742L11.7673 7.44821C11.7545 7.42286 11.7468 7.3952 11.7448 7.36686C11.7428 7.33851 11.7465 7.31005 11.7556 7.28315C11.7648 7.25625 11.7792 7.23144 11.7981 7.2102C11.817 7.18895 11.8399 7.1717 11.8655 7.15944L13.536 6.33846C13.5883 6.31264 13.6486 6.30819 13.704 6.32606C13.7595 6.34392 13.8058 6.3827 13.8332 6.43415L14.0095 6.77497L14.9186 6.32838L14.7331 5.97078C14.7201 5.94539 14.7124 5.91766 14.7103 5.88922C14.7082 5.86079 14.7119 5.83222 14.721 5.80522C14.7302 5.77822 14.7447 5.75332 14.7636 5.73202C14.7825 5.71071 14.8056 5.69342 14.8313 5.68117L16.5018 4.86018C16.554 4.83452 16.6141 4.83006 16.6695 4.84775C16.7249 4.86543 16.7713 4.90389 16.799 4.95504L16.9795 5.30425L17.8852 4.85431L17.6964 4.48915C17.6835 4.46374 17.6758 4.43602 17.6738 4.40761C17.6718 4.3792 17.6755 4.35068 17.6846 4.3237C17.6938 4.29673 17.7082 4.27186 17.7271 4.25054C17.746 4.22922 17.7689 4.21188 17.7946 4.19954L19.4659 3.37687C19.5178 3.35112 19.5776 3.34643 19.6328 3.3638C19.6881 3.38117 19.7345 3.41925 19.7623 3.47005L19.9469 3.82682L20.8519 3.37687L20.6655 3.01591C20.6527 2.99056 20.645 2.96291 20.643 2.93456C20.641 2.90621 20.6447 2.87775 20.6538 2.85085C20.663 2.82395 20.6774 2.79914 20.6963 2.7779C20.7152 2.75665 20.7381 2.7394 20.7637 2.72714L22.4351 1.90532C22.4874 1.87972 22.5475 1.87539 22.6029 1.89323C22.6584 1.91108 22.7047 1.94971 22.7322 2.00101L22.9144 2.35274L26.7473 0.451389C27.8285 -0.150497 28.459 -0.26802 28.8283 0.835857C28.9834 1.30789 29.0207 1.8107 28.9368 2.30043C28.853 2.79016 28.6506 3.25194 28.3473 3.6455C28.651 4.02886 28.8765 4.42223 29.0964 4.80589C29.8083 6.04781 30.4619 7.18793 33.5217 7.55734C37.0182 7.98081 37.4168 7.05835 38.0425 5.61044C38.1796 5.29317 38.3276 4.95066 38.5215 4.59156C38.6414 4.29332 38.8494 4.03871 39.1177 3.8616ZM13.1462 13.8196C13.3031 13.8916 13.4818 13.8994 13.6443 13.8415C13.7245 13.8146 13.7985 13.7712 13.8619 13.7153C13.9254 13.6595 13.977 13.5915 14.0139 13.5154C14.0507 13.4393 14.072 13.3567 14.0764 13.2722C14.0808 13.1878 14.0684 13.1034 14.0397 13.0238L13.1314 10.5617C13.0694 10.4007 12.9469 10.2703 12.7901 10.1983C12.6333 10.1263 12.4545 10.1185 12.292 10.1764C12.2117 10.2033 12.1377 10.2459 12.0741 10.3018C12.0106 10.3577 11.9589 10.4258 11.9221 10.502C11.8852 10.5781 11.864 10.6609 11.8596 10.7454C11.8553 10.8299 11.8678 10.9145 11.8966 10.994L12.8049 13.4562C12.8669 13.6172 12.9894 13.7476 13.1462 13.8196ZM20.5726 13.8387C20.7295 13.9107 20.9084 13.9183 21.071 13.8599L21.0701 13.8591C21.1502 13.8323 21.2242 13.7898 21.2877 13.734C21.3512 13.6783 21.4029 13.6104 21.4398 13.5344C21.4767 13.4584 21.498 13.3758 21.5026 13.2915C21.5072 13.2071 21.4948 13.1227 21.4663 13.0431L19.6758 8.19028C19.6141 8.02898 19.4917 7.89829 19.3347 7.82625C19.1778 7.75421 18.9988 7.74657 18.8363 7.80498C18.7562 7.83184 18.6822 7.87445 18.6188 7.93029C18.5553 7.98614 18.5036 8.0541 18.4668 8.13019C18.43 8.20627 18.4087 8.28895 18.4043 8.37337C18.3998 8.45778 18.4123 8.54223 18.441 8.62176L20.2315 13.4746C20.2932 13.6359 20.4156 13.7666 20.5726 13.8387ZM29.7616 13.8423C30.0145 13.7851 30.2351 13.6319 30.3771 13.415L32.1979 10.5634L30.9454 10.2134C29.9017 9.93745 28.9272 9.44631 28.0845 8.77147C27.2418 8.09663 26.5496 7.25302 26.0523 6.2948C25.9153 6.07601 25.6988 5.9188 25.4484 5.85619C25.1979 5.79358 24.933 5.83044 24.7091 5.95902C24.5626 6.04164 24.4406 6.1616 24.3555 6.3067C24.2704 6.45179 24.2253 6.61684 24.2248 6.78504C24.225 6.95653 24.2724 7.12465 24.3616 7.27109C25.4312 9.23351 27.1354 10.7746 29.1952 11.6421L28.7074 12.4035C28.6108 12.5537 28.5593 12.7285 28.5589 12.9072C28.5593 13.0713 28.6022 13.2326 28.6834 13.3752C28.7646 13.5179 28.8813 13.6372 29.0222 13.7214C29.2437 13.8561 29.5088 13.8994 29.7616 13.8423ZM66.0505 11.0293H67.2811C67.8319 11.0182 68.3792 11.1171 68.8913 11.3202C69.4033 11.5233 69.8696 11.8265 70.263 12.212C70.6564 12.5976 70.9689 13.0577 71.1823 13.5656C71.3956 14.0734 71.5055 14.6187 71.5055 15.1695C71.5055 15.7203 71.3956 16.2656 71.1823 16.7734C70.9689 17.2812 70.6564 17.7414 70.263 18.127C69.8696 18.5125 69.4033 18.8157 68.8913 19.0188C68.3792 19.2219 67.8319 19.3207 67.2811 19.3097H65.4931C65.4226 19.3105 65.3525 19.2975 65.287 19.2713C65.2215 19.2452 65.1618 19.2063 65.1112 19.1571C65.0607 19.1078 65.0204 19.0491 64.9926 18.9842C64.9648 18.9194 64.95 18.8497 64.9492 18.7791V12.1021C64.954 11.8142 65.0725 11.5398 65.2788 11.3388C65.4851 11.1379 65.7625 11.0266 66.0505 11.0293ZM67.1519 17.1632H67.2811C67.5478 17.1709 67.8134 17.1251 68.062 17.0284C68.3107 16.9317 68.5374 16.786 68.7287 16.6001C68.9201 16.4143 69.0722 16.1918 69.1761 15.9461C69.28 15.7004 69.3335 15.4363 69.3335 15.1695C69.3335 14.9027 69.28 14.6386 69.1761 14.3929C69.0722 14.1471 68.9201 13.9247 68.7287 13.7388C68.5374 13.5529 68.3107 13.4073 68.062 13.3106C67.8134 13.2139 67.5478 13.1681 67.2811 13.1758H67.1519V17.1632ZM56.9437 13.1378C56.8782 13.1639 56.8082 13.1768 56.7376 13.1758V13.1733H55.1603V14.0967H56.7376C56.88 14.0949 57.0172 14.1497 57.1192 14.249C57.2212 14.3483 57.2796 14.484 57.2816 14.6264V15.7101C57.2807 15.7806 57.266 15.8503 57.2381 15.9151C57.2103 15.9799 57.17 16.0385 57.1195 16.0877C57.0689 16.1369 57.0092 16.1757 56.9437 16.2018C56.8782 16.2279 56.8082 16.2408 56.7376 16.2398H55.1603V17.1632H56.7376C56.8082 17.1623 56.8782 17.1753 56.9438 17.2015C57.0093 17.2277 57.069 17.2665 57.1195 17.3158C57.17 17.365 57.2103 17.4238 57.2382 17.4886C57.266 17.5535 57.2807 17.6232 57.2816 17.6937V18.78C57.2807 18.8505 57.266 18.9201 57.2381 18.9849C57.2103 19.0497 57.17 19.1084 57.1195 19.1576C57.0689 19.2068 57.0092 19.2456 56.9437 19.2717C56.8782 19.2977 56.8082 19.3107 56.7376 19.3097H54.059C53.7708 19.3126 53.4932 19.2014 53.2867 19.0004C53.0802 18.7995 52.9616 18.525 52.9568 18.2368V11.559C52.959 11.4166 53.0176 11.2809 53.1197 11.1816C53.2218 11.0823 53.3591 11.0275 53.5016 11.0293H56.7376C56.88 11.0275 57.0172 11.0823 57.1192 11.1816C57.2212 11.2809 57.2796 11.4167 57.2816 11.559V12.6461C57.2807 12.7166 57.266 12.7863 57.2381 12.8511C57.2103 12.9159 57.17 12.9745 57.1195 13.0237C57.0689 13.0729 57.0092 13.1117 56.9437 13.1378ZM52.1144 11.1816C52.2164 11.2809 52.2748 11.4167 52.2768 11.559V12.1936V18.78C52.2759 18.8505 52.2612 18.9201 52.2333 18.9849C52.2055 19.0497 52.1652 19.1084 52.1147 19.1576C52.0641 19.2068 52.0044 19.2456 51.9389 19.2717C51.8734 19.2977 51.8034 19.3107 51.7328 19.3097H50.6189C50.5483 19.3108 50.4782 19.2979 50.4126 19.2719C50.347 19.2459 50.2871 19.2071 50.2365 19.1579C50.1859 19.1087 50.1455 19.05 50.1176 18.9851C50.0898 18.9203 50.075 18.8506 50.0741 18.78V16.2423H48.1988V18.78C48.1968 18.9223 48.1384 19.058 48.0364 19.1574C47.9344 19.2567 47.7971 19.3115 47.6548 19.3097H46.5392C46.4683 19.3109 46.3979 19.2981 46.3321 19.272C46.2662 19.2459 46.2062 19.2071 46.1554 19.1577C46.1046 19.1083 46.064 19.0493 46.0361 18.9842C46.0082 18.9191 45.9934 18.8491 45.9927 18.7783V11.559C45.9937 11.4883 46.0086 11.4185 46.0366 11.3536C46.0646 11.2887 46.1052 11.2299 46.156 11.1807C46.2067 11.1315 46.2667 11.0928 46.3325 11.0668C46.3982 11.0408 46.4685 11.0281 46.5392 11.0293H47.6539C47.7964 11.0275 47.9337 11.0823 48.0358 11.1816C48.138 11.2809 48.1965 11.4166 48.1988 11.559V12.1936V14.0958H50.0749V11.559C50.0769 11.4167 50.1353 11.2809 50.2373 11.1816C50.3393 11.0823 50.4765 11.0275 50.6189 11.0293H51.7328C51.8752 11.0275 52.0124 11.0823 52.1144 11.1816ZM70.4996 2.08665H71.6891C71.8314 2.08486 71.9687 2.13963 72.0707 2.23895C72.1727 2.33826 72.2311 2.474 72.2331 2.61634V9.83562C72.2322 9.90617 72.2174 9.97586 72.1896 10.0407C72.1618 10.1056 72.1215 10.1643 72.071 10.2136C72.0205 10.2628 71.9607 10.3017 71.8952 10.3278C71.8297 10.354 71.7597 10.367 71.6891 10.3662H70.4996C70.429 10.3672 70.3588 10.3542 70.2932 10.3281C70.2276 10.3019 70.1678 10.2631 70.1172 10.2139C70.0666 10.1646 70.0262 10.1058 69.9983 10.0409C69.9705 9.976 69.9557 9.90625 69.9548 9.83562V2.61634C69.9558 2.54579 69.9706 2.47612 69.9986 2.41131C70.0265 2.34651 70.0669 2.28783 70.1175 2.23865C70.1681 2.18946 70.2279 2.15072 70.2934 2.12464C70.359 2.09856 70.429 2.08565 70.4996 2.08665ZM61.9528 4.19481C61.8872 4.22099 61.8172 4.23401 61.7466 4.23313L61.7458 4.23061H60.1668V5.154H61.7458C61.8164 5.15312 61.8864 5.16614 61.9519 5.19232C62.0174 5.2185 62.0772 5.25733 62.1277 5.3066C62.1782 5.35586 62.2185 5.4146 62.2463 5.47945C62.2741 5.54429 62.2889 5.61398 62.2898 5.68454V6.76743C62.2878 6.90977 62.2294 7.04551 62.1274 7.14482C62.0254 7.24414 61.8882 7.29891 61.7458 7.29712H60.1668V8.22052H61.7466C61.8891 8.21895 62.0263 8.27391 62.1283 8.37336C62.2302 8.47281 62.2886 8.60863 62.2906 8.75105V9.8373C62.2897 9.90785 62.275 9.97754 62.2472 10.0424C62.2193 10.1072 62.179 10.166 62.1285 10.2152C62.078 10.2645 62.0183 10.3033 61.9528 10.3295C61.8872 10.3557 61.8172 10.3687 61.7466 10.3678H59.0654C58.7773 10.3708 58.4997 10.2596 58.2932 10.0586C58.0867 9.85762 57.9681 9.58313 57.9632 9.29501V2.61718C57.9642 2.54663 57.9791 2.47696 58.007 2.41215C58.0349 2.34735 58.0753 2.28868 58.1259 2.23949C58.1765 2.1903 58.2363 2.15156 58.3019 2.12548C58.3674 2.0994 58.4375 2.08649 58.508 2.08749H61.7466C61.889 2.08569 62.0262 2.14047 62.1282 2.23979C62.2302 2.3391 62.2886 2.47484 62.2906 2.61718V3.70259C62.2897 3.77315 62.275 3.84284 62.2472 3.90769C62.2193 3.97253 62.179 4.03126 62.1285 4.08053C62.078 4.1298 62.0183 4.16863 61.9528 4.19481ZM77.4654 2.08665H80.704C80.7747 2.08554 80.8449 2.09839 80.9106 2.12448C80.9763 2.15056 81.0362 2.18936 81.0869 2.23864C81.1376 2.28793 81.1781 2.34674 81.206 2.4117C81.2339 2.47666 81.2487 2.54648 81.2496 2.61718V3.70259C81.2472 3.84494 81.1883 3.9805 81.086 4.0795C80.9837 4.1785 80.8463 4.23285 80.704 4.23061H79.125V5.154H80.7056C80.7762 5.15312 80.8462 5.16614 80.9118 5.19232C80.9773 5.2185 81.037 5.25733 81.0875 5.3066C81.138 5.35586 81.1783 5.4146 81.2061 5.47945C81.234 5.54429 81.2487 5.61398 81.2496 5.68454V6.76995C81.2469 6.91215 81.188 7.04749 81.0857 7.14631C80.9835 7.24513 80.8462 7.29937 80.704 7.29712H79.125V8.22052H80.7056C80.8481 8.21895 80.9853 8.27391 81.0873 8.37336C81.1892 8.47281 81.2476 8.60863 81.2496 8.75105V9.83646C81.2487 9.90716 81.2339 9.97699 81.206 10.0419C81.1781 10.1069 81.1376 10.1657 81.0869 10.215C81.0362 10.2643 80.9763 10.3031 80.9106 10.3292C80.8449 10.3552 80.7747 10.3681 80.704 10.367H78.0228C77.7346 10.3699 77.457 10.2588 77.2505 10.0578C77.044 9.85678 76.9254 9.58229 76.9205 9.29417V2.61634C76.9228 2.47392 76.9814 2.33819 77.0835 2.2389C77.1856 2.1396 77.3229 2.08485 77.4654 2.08665ZM48.4271 2.11267H50.2008C50.343 2.1111 50.4801 2.16598 50.5819 2.26527C50.6837 2.36456 50.742 2.50017 50.744 2.64237V3.73617C50.7438 3.81894 50.7237 3.90045 50.6852 3.97373C50.683 3.97864 50.6805 3.98341 50.6777 3.988L50.6709 3.99892C50.6645 4.0102 50.6575 4.02113 50.6499 4.03166C50.5988 4.10275 50.5313 4.16052 50.4531 4.20011C50.375 4.23969 50.2884 4.25994 50.2008 4.25915H48.4271C48.3975 4.2587 48.3682 4.26409 48.3407 4.27498C48.3133 4.28588 48.2882 4.30208 48.267 4.32266C48.2458 4.34324 48.2289 4.3678 48.2172 4.39492C48.2054 4.42205 48.1992 4.45122 48.1988 4.48076C48.1984 4.50955 48.204 4.5381 48.2151 4.56466C48.2263 4.59122 48.2427 4.61523 48.2634 4.63522L50.0371 6.34602C50.263 6.56334 50.4425 6.82413 50.5648 7.11267C50.6871 7.4012 50.7498 7.71152 50.749 8.02492C50.7397 8.66154 50.4781 9.26844 50.0217 9.7123C49.5652 10.1562 48.9512 10.4007 48.3146 10.3922H46.5366C46.3943 10.394 46.2571 10.3392 46.1551 10.2399C46.0531 10.1406 45.9947 10.0048 45.9927 9.86248V8.77623C45.9937 8.70553 46.0086 8.63572 46.0366 8.57081C46.0646 8.50589 46.1052 8.44714 46.156 8.39793C46.2067 8.34872 46.2667 8.31002 46.3325 8.28404C46.3982 8.25806 46.4685 8.24532 46.5392 8.24654H48.3146C48.3741 8.24699 48.4313 8.22397 48.4739 8.18248C48.5165 8.14099 48.541 8.08437 48.5421 8.02492C48.5423 7.99615 48.5367 7.96763 48.5256 7.94109C48.5145 7.91454 48.4981 7.89052 48.4775 7.87047L46.7045 6.15379C46.4793 5.93706 46.3002 5.67709 46.1779 5.38946C46.0556 5.10184 45.9926 4.79248 45.9927 4.47992C46.002 3.84331 46.2636 3.23641 46.72 2.79254C47.1765 2.34868 47.7905 2.10415 48.4271 2.11267ZM55.6245 2.08665H56.7376C56.8086 2.08509 56.8792 2.09762 56.9453 2.1235C57.0114 2.14938 57.0717 2.1881 57.1228 2.23743C57.1738 2.28677 57.2146 2.34573 57.2427 2.41091C57.2708 2.47609 57.2858 2.5462 57.2866 2.61718V9.29501C57.2845 9.53353 57.2034 9.76462 57.0559 9.95207C56.9084 10.1395 56.7029 10.2728 56.4715 10.3309C56.2388 10.393 55.9923 10.3781 55.7688 10.2883C55.5453 10.1986 55.3568 10.0389 55.2317 9.8331C55.2317 9.8331 54.4199 8.469 53.6317 7.14686V9.20351V9.83646C53.6286 9.97866 53.5692 10.1138 53.4666 10.2123C53.364 10.3109 53.2266 10.3647 53.0844 10.362H51.9687C51.8982 10.3628 51.8281 10.3498 51.7626 10.3236C51.6971 10.2975 51.6374 10.2586 51.5869 10.2094C51.5363 10.1601 51.496 10.1014 51.4682 10.0365C51.4404 9.97167 51.4256 9.90198 51.4248 9.83142V3.15443C51.427 2.91595 51.5082 2.68493 51.6557 2.49751C51.8032 2.31008 52.0086 2.17682 52.2399 2.11855C52.4726 2.05659 52.7191 2.0716 52.9426 2.16132C53.166 2.25104 53.3545 2.41067 53.4797 2.61634L55.0806 5.30259V2.61634C55.0826 2.474 55.141 2.33826 55.243 2.23895C55.3449 2.13963 55.4822 2.08486 55.6245 2.08665ZM67.1896 2.93869L69.4259 9.68116C69.443 9.73154 69.4526 9.78414 69.4545 9.8373C69.4523 9.97972 69.3937 10.1155 69.2916 10.2147C69.1894 10.314 69.0521 10.3688 68.9097 10.367H67.6983C67.5823 10.368 67.469 10.3317 67.375 10.2636C67.281 10.1955 67.2114 10.099 67.1762 9.9884C67.0096 9.48669 66.8308 8.94751 66.6471 8.39348C66.4755 7.87591 66.2996 7.34537 66.1252 6.82031C65.7651 7.90656 65.3966 9.01715 65.0742 9.9884C65.0391 10.099 64.9694 10.1955 64.8754 10.2636C64.7815 10.3317 64.6682 10.368 64.5521 10.367H63.3416C63.1993 10.3688 63.062 10.314 62.96 10.2147C62.858 10.1154 62.7996 9.97964 62.7976 9.8373C62.7978 9.78432 62.806 9.73168 62.822 9.68116L65.0583 2.93869C65.1356 2.71773 65.2797 2.52628 65.4706 2.39082C65.6616 2.25536 65.8899 2.18259 66.124 2.18259C66.3581 2.18259 66.5864 2.25536 66.7773 2.39082C66.9682 2.52628 67.1123 2.71773 67.1896 2.93869ZM62.1832 11.8814L64.4195 18.6238C64.4356 18.6743 64.4438 18.727 64.4438 18.78C64.4429 18.8505 64.4282 18.9201 64.4003 18.9849C64.3725 19.0497 64.3322 19.1084 64.2817 19.1576C64.2311 19.2068 64.1714 19.2456 64.1059 19.2717C64.0404 19.2977 63.9703 19.3107 63.8998 19.3097H62.6893C62.5733 19.3108 62.4599 19.2746 62.3659 19.2064C62.2719 19.1383 62.2022 19.0418 62.1672 18.9311C61.8457 17.9598 61.1162 15.6765 61.1162 15.6765C61.1162 15.6765 60.3876 17.9598 60.0652 18.9311C60.0301 19.0417 59.9604 19.1381 59.8664 19.2063C59.7725 19.2744 59.6591 19.3106 59.5431 19.3097H58.3326C58.262 19.3104 58.1919 19.2973 58.1264 19.2709C58.0608 19.2446 58.0011 19.2056 57.9507 19.1562C57.9002 19.1067 57.86 19.0478 57.8324 18.9829C57.8047 18.9179 57.7901 18.8481 57.7895 18.7774C57.7894 18.7245 57.7976 18.6718 57.8138 18.6213L60.0501 11.8814C60.1275 11.6602 60.2717 11.4686 60.4628 11.333C60.6538 11.1974 60.8823 11.1246 61.1166 11.1246C61.3509 11.1246 61.5794 11.1974 61.7705 11.333C61.9616 11.4686 62.1058 11.6602 62.1832 11.8814ZM87.051 6.99911L87.9409 9.68116C87.9569 9.73166 87.9651 9.78432 87.9652 9.8373C87.9626 9.97891 87.9041 10.1137 87.8025 10.2125C87.701 10.3112 87.5645 10.3658 87.4229 10.3645H86.2124C86.0965 10.3653 85.9834 10.3289 85.8896 10.2608C85.7958 10.1927 85.7262 10.0964 85.6911 9.98588C85.5283 9.49732 85.1413 8.333 84.7988 7.29964H84.1339V9.83982C84.132 9.98238 84.0735 10.1183 83.9713 10.2178C83.8692 10.3173 83.7317 10.3721 83.5891 10.3704H82.4744C82.4038 10.3712 82.3338 10.3582 82.2682 10.332C82.2027 10.3059 82.143 10.267 82.0925 10.2178C82.042 10.1685 82.0017 10.1098 81.9738 10.0449C81.946 9.98006 81.9313 9.91037 81.9304 9.83982V2.62054C81.9314 2.54999 81.9463 2.48032 81.9742 2.41551C82.0021 2.3507 82.0425 2.29203 82.0931 2.24285C82.1437 2.19366 82.2035 2.15492 82.269 2.12884C82.3346 2.10276 82.4046 2.08985 82.4752 2.09085H84.9768C85.6108 2.08345 86.2219 2.32779 86.6761 2.7703C87.1302 3.21281 87.3903 3.81736 87.3994 4.45138V4.94078C87.3995 5.53416 87.1721 6.10499 86.7639 6.53574C86.88 6.64576 86.97 6.78025 87.0275 6.92944L87.0376 6.95966C87.0426 6.97309 87.051 6.98568 87.051 6.99911ZM84.9709 4.23313H84.1314V5.15317H84.9709C84.9994 5.15361 85.0277 5.14842 85.0542 5.13789C85.0807 5.12736 85.1049 5.11171 85.1253 5.09182C85.1457 5.07193 85.162 5.0482 85.1733 5.02199C85.1845 4.99579 85.1905 4.96762 85.1908 4.9391V4.44718C85.1899 4.38967 85.1663 4.33485 85.1251 4.29473C85.0838 4.2546 85.0284 4.23245 84.9709 4.23313ZM75.5321 6.99911L76.4219 9.68116C76.438 9.73276 76.4456 9.78662 76.4446 9.84066C76.4426 9.983 76.3842 10.1187 76.2822 10.2181C76.1802 10.3174 76.043 10.3721 75.9006 10.3704H74.6901C74.5742 10.3713 74.461 10.335 74.3672 10.2669C74.2733 10.1987 74.2038 10.1023 74.1688 9.99176L72.9239 6.23354H72.5411C72.5189 6.23354 72.4975 6.22469 72.4818 6.20895C72.466 6.19321 72.4572 6.17186 72.4572 6.14959C72.4573 6.14158 72.4587 6.13363 72.4614 6.12609V6.12189V6.11769L73.671 2.47196C73.706 2.36141 73.7756 2.26499 73.8694 2.19685C73.9632 2.12872 74.0764 2.09244 74.1923 2.09336H75.4045C75.5469 2.09157 75.6841 2.14635 75.7861 2.24566C75.8881 2.34498 75.9465 2.48071 75.9485 2.62306C75.9485 2.67605 75.9403 2.72873 75.9241 2.7792L74.9168 5.81801L74.7674 6.26963C74.9343 6.3132 75.0885 6.39572 75.2173 6.51041C75.3462 6.6251 75.446 6.7687 75.5086 6.92944L75.5187 6.95966C75.5202 6.96367 75.522 6.96761 75.5238 6.97152C75.528 6.98069 75.5321 6.9897 75.5321 6.99911Z" fill="url(#paint0_linear)"/>
<defs>
<linearGradient id="paint0_linear" x1="66.9789" y1="19.3096" x2="66.9789" y2="-22.6629" gradientUnits="userSpaceOnUse">
<stop stop-color="#999A9E"/>
<stop offset="1" stop-color="#5E5751"/>
</linearGradient>
</defs>
</svg>
