<svg xmlns="http://www.w3.org/2000/svg" xmlns:xlink="http://www.w3.org/1999/xlink" width="50" height="50" viewBox="0 0 50 50">
  <defs>
    <style>
      .cls-1 {
        fill-rule: evenodd;
        fill: url(#linear-gradient);
      }
    </style>
    <linearGradient id="linear-gradient" x1="25" y1="50" x2="25" gradientUnits="userSpaceOnUse">
      <stop offset="0" stop-color="#5e5751"/>
      <stop offset="1" stop-color="#999a9e"/>
    </linearGradient>
  </defs>
  <path class="cls-1" d="M25.36,40.136H23.894a1.3,1.3,0,0,0-1.312,1.278v7.954A0.64,0.64,0,0,0,23.23,50h2.13A4.933,4.933,0,1,0,25.36,40.136Zm0,7.307H25.206v-4.75H25.36A2.376,2.376,0,1,1,25.36,47.443ZM12.8,42.693a0.639,0.639,0,0,0,.648-0.631V40.767a0.64,0.64,0,0,0-.648-0.631H8.945a0.641,0.641,0,0,0-.649.631v7.955A1.3,1.3,0,0,0,9.609,50H12.8a0.639,0.639,0,0,0,.648-0.631V48.075a0.64,0.64,0,0,0-.648-0.632H10.921v-1.1H12.8a0.639,0.639,0,0,0,.648-0.631V44.421a0.64,0.64,0,0,0-.648-0.631H10.921v-1.1H12.8ZM7.486,40.767a0.64,0.64,0,0,0-.648-0.631H5.511a0.64,0.64,0,0,0-.648.631v3.022H2.628V41.523h0V40.767a0.641,0.641,0,0,0-.649-0.631H0.651A0.64,0.64,0,0,0,0,40.767v8.6A0.64,0.64,0,0,0,.651,50H1.98a0.64,0.64,0,0,0,.648-0.631V46.346H4.862v3.023A0.639,0.639,0,0,0,5.511,50H6.838a0.639,0.639,0,0,0,.648-0.631V41.523h0V40.767ZM30.611,29.483H29.194a0.64,0.64,0,0,0-.649.631v8.6a0.64,0.64,0,0,0,.649.632h1.417a0.64,0.64,0,0,0,.648-0.632v-8.6A0.64,0.64,0,0,0,30.611,29.483ZM18.767,32.04a0.64,0.64,0,0,0,.648-0.632V30.115a0.64,0.64,0,0,0-.648-0.631H14.909a0.64,0.64,0,0,0-.649.631v7.955a1.3,1.3,0,0,0,1.313,1.278h3.194a0.64,0.64,0,0,0,.648-0.632V37.422a0.641,0.641,0,0,0-.648-0.632H16.885v-1.1h1.881a0.64,0.64,0,0,0,.648-0.631V33.769a0.64,0.64,0,0,0-.648-0.632H16.885v-1.1h1.881ZM41.35,29.483H37.492a0.641,0.641,0,0,0-.649.631v7.955a1.3,1.3,0,0,0,1.313,1.278H41.35A0.64,0.64,0,0,0,42,38.715V37.422a0.641,0.641,0,0,0-.648-0.632H39.469v-1.1H41.35A0.64,0.64,0,0,0,42,35.062V33.769a0.64,0.64,0,0,0-.648-0.632H39.469v-1.1H41.35A0.64,0.64,0,0,0,42,31.408V30.115A0.64,0.64,0,0,0,41.35,29.483Zm-36.337.031H2.9A2.862,2.862,0,0,0,0,32.334a2.766,2.766,0,0,0,.848,1.994L2.96,36.373a0.254,0.254,0,0,1,.077.184,0.269,0.269,0,0,1-.271.264H0.651A0.64,0.64,0,0,0,0,37.452v1.294a0.64,0.64,0,0,0,.648.631H2.766a2.862,2.862,0,0,0,2.9-2.82,2.766,2.766,0,0,0-.848-2L2.705,32.519a0.252,0.252,0,0,1-.077-0.184A0.268,0.268,0,0,1,2.9,32.071H5.013A0.652,0.652,0,0,0,5.548,31.8l0,0a0.429,0.429,0,0,0,.025-0.039l0.008-.013a0.158,0.158,0,0,0,.009-0.017,0.611,0.611,0,0,0,.07-0.283V30.145A0.64,0.64,0,0,0,5.013,29.514Zm7.789-.031H11.474a0.64,0.64,0,0,0-.648.631v3.2l-1.907-3.2a1.329,1.329,0,0,0-1.477-.593,1.285,1.285,0,0,0-.971,1.234v7.954a0.64,0.64,0,0,0,.648.632H8.448A0.64,0.64,0,0,0,9.1,38.715V37.961h0v-2.45c0.939,1.575,1.906,3.2,1.906,3.2a1.328,1.328,0,0,0,1.477.593,1.284,1.284,0,0,0,.971-1.234V30.115A0.64,0.64,0,0,0,12.8,29.483ZM27.915,38.53h0a0,0,0,0,0,0,0l-2.664-8.032h0a1.345,1.345,0,0,0-2.539,0h0l-2.664,8.032a0,0,0,0,0,0,0h0a0.626,0.626,0,0,0-.029.186,0.64,0.64,0,0,0,.648.631h1.442a0.647,0.647,0,0,0,.622-0.451h0c0.384-1.157.823-2.48,1.252-3.774,0.43,1.295.868,2.618,1.252,3.774h0a0.647,0.647,0,0,0,.622.451H27.3a0.641,0.641,0,0,0,.649-0.631A0.65,0.65,0,0,0,27.915,38.53ZM21.951,49.183h0v0l-2.664-8.032h0a1.346,1.346,0,0,0-2.541,0h0L14.082,49.18a0,0,0,0,0,0,0h0a0.608,0.608,0,0,0-.029.186A0.64,0.64,0,0,0,14.7,50h1.442a0.647,0.647,0,0,0,.622-0.451h0c0.384-1.157,1.252-3.877,1.252-3.877s0.869,2.72,1.252,3.877h0A0.646,0.646,0,0,0,19.89,50h1.442a0.639,0.639,0,0,0,.648-0.631A0.608,0.608,0,0,0,21.951,49.183ZM49.971,38.53h0a0.014,0.014,0,0,0,0,0l-1.06-3.195c0-.016-0.01-0.031-0.016-0.047l-0.012-.036h0a1.282,1.282,0,0,0-.314-0.469,2.762,2.762,0,0,0,.757-1.9V32.3a2.853,2.853,0,0,0-2.886-2.812h-2.98a0.64,0.64,0,0,0-.649.631v8.6a0.64,0.64,0,0,0,.648.632h1.328a0.641,0.641,0,0,0,.649-0.632V35.693h0.792c0.408,1.231.869,2.618,1.063,3.2h0a0.647,0.647,0,0,0,.621.451h1.442A0.64,0.64,0,0,0,50,38.716,0.619,0.619,0,0,0,49.971,38.53ZM45.433,32.04h1a0.259,0.259,0,0,1,.262.255v0.586a0.258,0.258,0,0,1-.262.255h-1v-1.1ZM36.249,38.53h0v0l-1.06-3.195c0-.016-0.01-0.031-0.016-0.047l-0.012-.036h0a1.3,1.3,0,0,0-.883-0.786l0.178-.538,1.2-3.62a0,0,0,0,1,0,0h0a0.608,0.608,0,0,0,.029-0.186,0.64,0.64,0,0,0-.648-0.631H33.593a0.646,0.646,0,0,0-.621.451h0l-1.441,4.343s0,0,0,.005a0.019,0.019,0,0,0,0,.005h0a0.086,0.086,0,0,0-.005.028,0.1,0.1,0,0,0,.1.1h0.456L33.565,38.9h0a0.646,0.646,0,0,0,.621.451h1.442a0.64,0.64,0,0,0,.648-0.631A0.6,0.6,0,0,0,36.249,38.53ZM0.231,22.1A1.8,1.8,0,0,0,2.1,23.821H49.781V19.849H0.231V22.1ZM47.889,4.286A1.885,1.885,0,0,0,46.1,5.467v0C44.815,7.847,45.222,9.615,40.144,9c-4.771-.576-4.631-2.725-6.164-4.66h0A3.628,3.628,0,0,0,34.553.993c-0.44-1.315-1.191-1.175-2.479-.458L27.508,2.8l-0.217-.419a0.268,0.268,0,0,0-.354-0.114l-1.991.979a0.254,0.254,0,0,0-.117.344l0.222,0.43-1.078.536-0.22-.425A0.267,0.267,0,0,0,23.4,4.02L21.409,5a0.255,0.255,0,0,0-.117.345l0.225,0.435-1.079.536L20.223,5.9a0.268,0.268,0,0,0-.354-0.113l-1.99.978a0.254,0.254,0,0,0-.117.345l0.221,0.426L16.9,8.068l-0.21-.406a0.267,0.267,0,0,0-.354-0.114l-1.99.978a0.254,0.254,0,0,0-.117.344l0.216,0.416-2,.991c-1.1.68-.071,1.17-1.641,1.628l0.073,0c-3.429,1.135-5.819,1.995-8.1,2.722-2.855.913-2.557,3.119-2.557,4.282H49.1a0.672,0.672,0,0,0,.682-0.664V6.028A1.822,1.822,0,0,0,47.889,4.286Zm-31.424,12.2a0.788,0.788,0,0,1-1-.459l-1.082-2.933a0.756,0.756,0,0,1,.471-0.974,0.788,0.788,0,0,1,1,.459l1.082,2.933A0.756,0.756,0,0,1,16.465,16.485Zm8.847,0.022a0.786,0.786,0,0,1-1-.459l-2.133-5.781a0.756,0.756,0,0,1,.471-0.973,0.786,0.786,0,0,1,1,.459l2.133,5.781A0.756,0.756,0,0,1,25.311,16.507Zm11.086-.53a1.19,1.19,0,0,1-1.614.365,1.134,1.134,0,0,1-.552-0.97,1.114,1.114,0,0,1,.177-0.6l0.581-.907a11.753,11.753,0,0,1-5.758-5.207,1.116,1.116,0,0,1-.163-0.579,1.134,1.134,0,0,1,.577-0.984,1.189,1.189,0,0,1,1.6.4,9.223,9.223,0,0,0,5.829,4.668l1.492,0.417Z"/>
</svg>
