<?xml version="1.0" encoding="utf-8"?>
<!-- Generated by IcoMoon.io -->
<!DOCTYPE svg PUBLIC "-//W3C//DTD SVG 1.1//EN" "http://www.w3.org/Graphics/SVG/1.1/DTD/svg11.dtd">
<svg version="1.1" xmlns="http://www.w3.org/2000/svg" xmlns:xlink="http://www.w3.org/1999/xlink" width="656" height="26" viewBox="0 0 656 26">
<svg id="icon-cart" width="26" height="26" viewBox="0 0 26 26" x="0" y="0">
<path d="M13 1c6.627 0 12 5.373 12 12s-5.373 12-12 12c-6.627 0-12-5.373-12-12s5.373-12 12-12zM13 0c-7.18 0-13 5.82-13 13s5.82 13 13 13c7.18 0 13-5.82 13-13-0.009-7.176-5.824-12.991-12.999-13h-0.001zM18.35 9.952c0-0.47-0.1-0.635-0.594-0.635h-8.542l-0.254-1.588c0-0.007 0-0.014 0-0.022 0-0.347-0.282-0.629-0.629-0.629-0.050 0-0.098 0.006-0.145 0.017l-1.902-0.001c-0.037-0.009-0.080-0.015-0.124-0.015-0.29 0-0.526 0.235-0.526 0.526 0 0.044 0.005 0.087 0.016 0.127l-0.001 0.314c-0.010 0.038-0.016 0.082-0.016 0.128 0 0.289 0.234 0.523 0.523 0.523 0.045 0 0.089-0.006 0.131-0.017l1.178 0.001 1.042 6.032c0.137 0.374 0.491 0.636 0.905 0.636 0.017 0 0.034-0 0.050-0.001l6.986 0c0.055 0.014 0.117 0.022 0.182 0.022 0.387 0 0.709-0.282 0.77-0.652zM16.12 13.762h-6.28l-0.467-2.862h7.287zM9.78 17.572c0.001 0.702 0.569 1.27 1.271 1.27s1.271-0.569 1.271-1.271-0.569-1.271-1.271-1.271c-0 0-0.001 0-0.001 0s0 0 0 0c-0.701 0-1.27 0.569-1.27 1.27 0 0.001 0 0.001 0 0.002zM13.909 17.572c0.001 0.702 0.569 1.27 1.271 1.27s1.271-0.569 1.271-1.271-0.569-1.271-1.271-1.271c-0 0-0.001 0-0.001 0-0.701 0-1.27 0.569-1.27 1.27 0 0.001 0 0.001 0 0.002z"></path>
</svg>
<svg id="icon-cart_hover" width="26" height="26" viewBox="0 0 26 26" x="42" y="0">
<path fill="#ef0d22" d="M13 1c6.627 0 12 5.373 12 12s-5.373 12-12 12c-6.627 0-12-5.373-12-12s5.373-12 12-12zM13 0c-7.18 0-13 5.82-13 13s5.82 13 13 13c7.18 0 13-5.82 13-13-0.009-7.176-5.824-12.991-12.999-13h-0.001zM18.35 9.952c0-0.47-0.1-0.635-0.594-0.635h-8.542l-0.254-1.588c0-0.007 0-0.014 0-0.022 0-0.347-0.282-0.629-0.629-0.629-0.050 0-0.098 0.006-0.145 0.017l-1.902-0.001c-0.037-0.009-0.080-0.015-0.124-0.015-0.29 0-0.526 0.235-0.526 0.526 0 0.044 0.005 0.087 0.016 0.127l-0.001 0.314c-0.010 0.038-0.016 0.082-0.016 0.128 0 0.289 0.234 0.523 0.523 0.523 0.045 0 0.089-0.006 0.131-0.017l1.178 0.001 1.042 6.032c0.137 0.374 0.491 0.636 0.905 0.636 0.017 0 0.034-0 0.050-0.001l6.986 0c0.055 0.014 0.117 0.022 0.182 0.022 0.387 0 0.709-0.282 0.77-0.652zM16.12 13.762h-6.28l-0.467-2.862h7.287zM9.78 17.572c0.001 0.702 0.569 1.27 1.271 1.27s1.271-0.569 1.271-1.271-0.569-1.271-1.271-1.271c-0 0-0.001 0-0.001 0s0 0 0 0c-0.701 0-1.27 0.569-1.27 1.27 0 0.001 0 0.001 0 0.002zM13.909 17.572c0.001 0.702 0.569 1.27 1.271 1.27s1.271-0.569 1.271-1.271-0.569-1.271-1.271-1.271c-0 0-0.001 0-0.001 0-0.701 0-1.27 0.569-1.27 1.27 0 0.001 0 0.001 0 0.002z"></path>
</svg>
<svg id="icon-fb" width="26" height="26" viewBox="0 0 26 26" x="84" y="0">
<path fill="#fff" d="M13 1c6.627 0 12 5.373 12 12s-5.373 12-12 12c-6.627 0-12-5.373-12-12s5.373-12 12-12zM13 0c-7.18 0-13 5.82-13 13s5.82 13 13 13c7.18 0 13-5.82 13-13-0.009-7.176-5.824-12.991-12.999-13h-0.001zM17.032 10.416s-1.944-0.342-2.4 0.209c-0.67 0.336-0.456 2.5-0.456 2.5h2.43v2.187h-2.43v9.688h-2.886v-9.692h-1.79v-2.188h1.82c-0.014-0.205-0.023-0.445-0.023-0.687 0-0.585 0.048-1.158 0.141-1.717 0.129-1.046 0.878-1.949 1.886-2.305 0.566-0.164 1.194-0.255 1.843-0.255 0.799 0 1.565 0.138 2.277 0.391-0.169 0.613-0.291 1.244-0.412 1.869z"></path>
</svg>
<svg id="icon-fb_hover" width="26" height="26" viewBox="0 0 26 26" x="126" y="0">
<path fill="#ef0d22" d="M13 1c6.627 0 12 5.373 12 12s-5.373 12-12 12c-6.627 0-12-5.373-12-12s5.373-12 12-12zM13 0c-7.18 0-13 5.82-13 13s5.82 13 13 13c7.18 0 13-5.82 13-13-0.009-7.176-5.824-12.991-12.999-13h-0.001zM17.032 10.416s-1.944-0.342-2.4 0.209c-0.67 0.336-0.456 2.5-0.456 2.5h2.43v2.187h-2.43v9.688h-2.886v-9.692h-1.79v-2.188h1.82c-0.014-0.205-0.023-0.445-0.023-0.687 0-0.585 0.048-1.158 0.141-1.717 0.129-1.046 0.878-1.949 1.886-2.305 0.566-0.164 1.194-0.255 1.843-0.255 0.799 0 1.565 0.138 2.277 0.391-0.169 0.613-0.291 1.244-0.412 1.869z"></path>
</svg>
<svg id="icon-insta" width="26" height="26" viewBox="0 0 26 26" x="168" y="0">
<path fill="#fff" d="M13 1c6.627 0 12 5.373 12 12s-5.373 12-12 12c-6.627 0-12-5.373-12-12s5.373-12 12-12zM13 0c-7.18 0-13 5.82-13 13s5.82 13 13 13c7.18 0 13-5.82 13-13-0.009-7.176-5.824-12.991-12.999-13h-0.001zM7.344 17.49v-9.345c0.008-0.025 0.017-0.050 0.023-0.076 0.094-0.537 0.498-0.959 1.017-1.077l0.152-0.038h9.345c0.017 0.007 0.038 0.014 0.060 0.020 0.546 0.089 0.973 0.495 1.092 1.017 0.015 0.056 0.026 0.109 0.039 0.152v9.347c-0.008 0.020-0.016 0.045-0.022 0.071-0.1 0.548-0.513 0.972-1.041 1.089-0.049 0.011-0.089 0.022-0.13 0.032h-9.344c-0.018-0.008-0.039-0.015-0.061-0.020-0.547-0.095-0.975-0.504-1.095-1.030-0.012-0.054-0.024-0.098-0.035-0.142zM8.7 11.921c0 0.040 0 0.069 0 0.1q0 2.416 0 4.832c-0 0.008-0.001 0.016-0.001 0.025 0 0.251 0.204 0.455 0.455 0.455 0.016 0 0.032-0.001 0.048-0.002l8.025 0c0.013 0.001 0.028 0.002 0.043 0.002 0.254 0 0.46-0.206 0.46-0.46 0-0.017-0.001-0.034-0.003-0.051q0-2.385 0-4.773v-0.126h-1.027c0.074 0.27 0.116 0.58 0.116 0.901 0 0.814-0.274 1.563-0.734 2.162-0.622 0.854-1.622 1.414-2.753 1.434-0.060 0.003-0.126 0.005-0.193 0.005-0.9 0-1.719-0.348-2.329-0.916-0.748-0.656-1.22-1.617-1.22-2.689 0-0.319 0.042-0.629 0.121-0.924l-1.008 0.025zM15.464 12.821c0-0.001 0-0.003 0-0.004 0-1.246-1.010-2.256-2.256-2.256s-2.256 1.010-2.256 2.256c0 1.243 1.005 2.251 2.248 2.256 0.003 0 0.006 0 0.009 0 1.244 0 2.253-1.007 2.255-2.251zM16.6 8.3c-0.218 0-0.435 0-0.652 0-0.010-0.001-0.022-0.001-0.034-0.001-0.249 0-0.45 0.201-0.45 0.45 0 0.006 0 0.012 0 0.018q-0.009 0.663-0 1.327c-0 0.007-0.001 0.015-0.001 0.024 0 0.244 0.197 0.441 0.441 0.441 0.008 0 0.015-0 0.023-0.001q0.663 0.010 1.327 0c0.006 0 0.012 0 0.019 0 0.248 0 0.449-0.201 0.449-0.449 0-0.012-0-0.023-0.001-0.035q0-0.645 0-1.291c0.001-0.009 0.001-0.019 0.001-0.029 0-0.251-0.204-0.455-0.455-0.455-0.009 0-0.019 0-0.028 0.001-0.212-0-0.426-0-0.639-0z"></path>
</svg>
<svg id="icon-insta_hover" width="26" height="26" viewBox="0 0 26 26" x="210" y="0">
<path fill="#ef0d22" d="M13 1c6.627 0 12 5.373 12 12s-5.373 12-12 12c-6.627 0-12-5.373-12-12s5.373-12 12-12zM13 0c-7.18 0-13 5.82-13 13s5.82 13 13 13c7.18 0 13-5.82 13-13-0.009-7.176-5.824-12.991-12.999-13h-0.001zM7.344 17.49v-9.345c0.008-0.025 0.017-0.050 0.023-0.076 0.094-0.537 0.498-0.959 1.017-1.077l0.152-0.038h9.345c0.017 0.007 0.038 0.014 0.060 0.020 0.546 0.089 0.973 0.495 1.092 1.017 0.015 0.056 0.026 0.109 0.039 0.152v9.347c-0.008 0.020-0.016 0.045-0.022 0.071-0.1 0.548-0.513 0.972-1.041 1.089-0.049 0.011-0.089 0.022-0.13 0.032h-9.344c-0.018-0.008-0.039-0.015-0.061-0.020-0.547-0.095-0.975-0.504-1.095-1.030-0.012-0.054-0.024-0.098-0.035-0.142zM8.7 11.921c0 0.040 0 0.069 0 0.1q0 2.416 0 4.832c-0 0.008-0.001 0.016-0.001 0.025 0 0.251 0.204 0.455 0.455 0.455 0.016 0 0.032-0.001 0.048-0.002l8.025 0c0.013 0.001 0.028 0.002 0.043 0.002 0.254 0 0.46-0.206 0.46-0.46 0-0.017-0.001-0.034-0.003-0.051q0-2.385 0-4.773v-0.126h-1.027c0.074 0.27 0.116 0.58 0.116 0.901 0 0.814-0.274 1.563-0.734 2.162-0.622 0.854-1.622 1.414-2.753 1.434-0.060 0.003-0.126 0.005-0.193 0.005-0.9 0-1.719-0.348-2.329-0.916-0.748-0.656-1.22-1.617-1.22-2.689 0-0.319 0.042-0.629 0.121-0.924l-1.008 0.025zM15.464 12.821c0-0.001 0-0.003 0-0.004 0-1.246-1.010-2.256-2.256-2.256s-2.256 1.010-2.256 2.256c0 1.243 1.005 2.251 2.248 2.256 0.003 0 0.006 0 0.009 0 1.244 0 2.253-1.007 2.255-2.251zM16.6 8.3c-0.218 0-0.435 0-0.652 0-0.010-0.001-0.022-0.001-0.034-0.001-0.249 0-0.45 0.201-0.45 0.45 0 0.006 0 0.012 0 0.018q-0.009 0.663-0 1.327c-0 0.007-0.001 0.015-0.001 0.024 0 0.244 0.197 0.441 0.441 0.441 0.008 0 0.015-0 0.023-0.001q0.663 0.010 1.327 0c0.006 0 0.012 0 0.019 0 0.248 0 0.449-0.201 0.449-0.449 0-0.012-0-0.023-0.001-0.035q0-0.645 0-1.291c0.001-0.009 0.001-0.019 0.001-0.029 0-0.251-0.204-0.455-0.455-0.455-0.009 0-0.019 0-0.028 0.001-0.212-0-0.426-0-0.639-0z"></path>
</svg>
<svg id="icon-search" width="26" height="26" viewBox="0 0 26 26" x="252" y="0">
<path fill="#000" d="M13 1c6.6 0 12 5.4 12 12s-5.4 12-12 12-12-5.4-12-12 5.4-12 12-12zM13 0c-7.2 0-13 5.8-13 13s5.8 13 13 13 13-5.8 13-13c0-7.2-5.8-13-13-13v0z"></path>
<path fill="#000" d="M16.9 11.9c0 2.761-2.239 5-5 5s-5-2.239-5-5c0-2.761 2.239-5 5-5s5 2.239 5 5z"></path>
<path fill="#fff" d="M16.1 11.9c0 2.32-1.88 4.2-4.2 4.2s-4.2-1.88-4.2-4.2c0-2.32 1.88-4.2 4.2-4.2s4.2 1.88 4.2 4.2z"></path>
<path fill="#000" d="M17.9 18.9l-2.9-3c-0.3-0.3-0.3-0.7 0-0.9v0c0.3-0.3 0.7-0.3 0.9 0l2.9 2.9c0.3 0.3 0.3 0.7 0 0.9v0c-0.2 0.3-0.6 0.3-0.9 0.1z"></path>
</svg>
<svg id="icon-search_hover" width="26" height="26" viewBox="0 0 26 26" x="294" y="0">
<path fill="#ef0d22" d="M13 1c6.6 0 12 5.4 12 12s-5.4 12-12 12-12-5.4-12-12 5.4-12 12-12zM13 0c-7.2 0-13 5.8-13 13s5.8 13 13 13 13-5.8 13-13c0-7.2-5.8-13-13-13v0z"></path>
<path fill="#ef0d22" d="M16.9 11.9c0 2.761-2.239 5-5 5s-5-2.239-5-5c0-2.761 2.239-5 5-5s5 2.239 5 5z"></path>
<path fill="#fff" d="M16.1 11.9c0 2.32-1.88 4.2-4.2 4.2s-4.2-1.88-4.2-4.2c0-2.32 1.88-4.2 4.2-4.2s4.2 1.88 4.2 4.2z"></path>
<path fill="#ef0d22" d="M17.9 18.9l-2.9-3c-0.3-0.3-0.3-0.7 0-0.9v0c0.3-0.3 0.7-0.3 0.9 0l2.9 2.9c0.3 0.3 0.3 0.7 0 0.9v0c-0.2 0.3-0.6 0.3-0.9 0.1z"></path>
</svg>
<svg id="icon-tel" width="26" height="26" viewBox="0 0 26 26" x="336" y="0">
<path d="M16.9 18.6c-0.3 0.2-1 0.6-2.7-0.4-3-1.8-5.2-4.7-5.9-8.2-0.2-1.3-0.1-2.1 0.6-2.5 0.8-0.6 1.9-0.4 2.5 0.3 0.5 0.8 0.2 1.9-0.6 2.4-0.1 0-0.2 0.1-0.3 0.1-0.2 0.1-0.4 0.3-0.3 0.6 0.5 2.2 1.9 4.2 3.9 5.4 0.2 0.1 0.5 0.1 0.7-0.1 0.7-0.7 1.9-0.7 2.7 0 0 0 0 0 0.1 0.1 0.5 0.7 0.3 1.7-0.4 2.2-0.2 0-0.2 0-0.3 0.1v0 0zM14.3 15c-1.3-1-2.3-2.3-2.8-3.9 1.3-0.8 1.8-2.5 1-3.9 0 0 0-0.1-0.1-0.1-0.6-0.7-1.4-1.1-2.4-1.1-0.6 0-1.2 0.2-1.8 0.6-1.4 0.9-1.3 2.4-1.1 3.6 0.8 3.8 3.2 7.1 6.5 9 0.7 0.5 1.6 0.7 2.4 0.8 1.6 0 2.9-1.3 2.9-2.9 0-0.5-0.2-1-0.4-1.5-1-1.3-2.9-1.5-4.2-0.6v0z"></path>
<path d="M13 1c6.6 0 12 5.4 12 12s-5.4 12-12 12-12-5.4-12-12 5.3-12 12-12zM13 0c-7.2 0-13 5.8-13 13s5.8 13 13 13 13-5.8 13-13c0-7.2-5.9-13-13-13v0z"></path>
</svg>
<svg id="icon-tel_hover" width="26" height="26" viewBox="0 0 26 26" x="378" y="0">
<path fill="#ef0d22" d="M13 1c6.627 0 12 5.373 12 12s-5.373 12-12 12c-6.627 0-12-5.373-12-12s5.373-12 12-12zM13 0c-7.18 0-13 5.82-13 13s5.82 13 13 13c7.18 0 13-5.82 13-13-0.009-7.176-5.824-12.991-12.999-13h-0.001z"></path>
<path fill="#ef0d22" d="M16.929 18.566c-0.27 0.18-1 0.626-2.661-0.377-2.982-1.775-5.139-4.671-5.903-8.092-0.301-1.435-0.116-2.149 0.552-2.589 0.297-0.217 0.669-0.347 1.072-0.347 0.562 0 1.065 0.254 1.4 0.652 0.155 0.255 0.246 0.559 0.246 0.885 0 0.725-0.448 1.345-1.082 1.598-0.218 0.102-0.359 0.309-0.359 0.548 0 0.012 0 0.023 0.001 0.035 0.528 2.292 1.942 4.185 3.854 5.336 0.114 0.057 0.204 0.078 0.298 0.078 0.163 0 0.311-0.063 0.422-0.166 0.338-0.329 0.801-0.532 1.312-0.532 0.563 0 1.068 0.247 1.413 0.638 0.176 0.256 0.28 0.57 0.28 0.909 0 0.61-0.338 1.142-0.838 1.417l-0.008 0.004zM14.274 15c-1.288-0.964-2.262-2.283-2.783-3.812 0.821-0.555 1.373-1.456 1.373-2.485 0-0.576-0.173-1.112-0.47-1.559-0.522-0.694-1.356-1.144-2.294-1.144-0.023 0-0.047 0-0.070 0.001-0.675 0.001-1.305 0.206-1.828 0.558-1.369 0.91-1.309 2.361-1.063 3.642 0.834 3.868 3.216 7.064 6.45 8.965 0.75 0.485 1.579 0.775 2.47 0.834 1.602-0.018 2.882-1.309 2.882-2.899 0-0.565-0.161-1.092-0.441-1.537-0.574-0.689-1.445-1.132-2.42-1.132-0.676 0-1.302 0.213-1.815 0.576l0.010-0.007z"></path>
</svg>
<svg id="icon-vk" width="26" height="26" viewBox="0 0 26 26" x="420" y="0">
<path fill="#fff" d="M13 1c6.627 0 12 5.373 12 12s-5.373 12-12 12c-6.627 0-12-5.373-12-12s5.373-12 12-12zM13 0c-7.18 0-13 5.82-13 13s5.82 13 13 13c7.18 0 13-5.82 13-13-0.009-7.176-5.824-12.991-12.999-13h-0.001zM16.448 12.924c-0.355-0.367-0.82-0.626-1.343-0.722l-0.015-0.055c0.387-0.159 0.703-0.424 0.919-0.76 0.215-0.335 0.34-0.735 0.34-1.163 0-0.012-0-0.025-0-0.037 0-0.011 0-0.025 0-0.040 0-0.358-0.090-0.695-0.249-0.989-0.167-0.292-0.417-0.534-0.719-0.69-0.291-0.16-0.618-0.273-0.966-0.326-0.415-0.052-0.877-0.081-1.346-0.081-0.070 0-0.139 0.001-0.208 0.002l-3.221-0v9.146h3.658c0.041 0.001 0.090 0.002 0.139 0.002 0.508 0 1-0.063 1.471-0.182 0.394-0.115 0.772-0.313 1.098-0.573 0.284-0.222 0.518-0.508 0.681-0.835 0.17-0.348 0.265-0.74 0.265-1.155 0-0.021-0-0.041-0.001-0.062 0.002-0.029 0.003-0.067 0.003-0.105 0-0.527-0.194-1.009-0.515-1.378l0.002 0.003zM13.991 15.353c-0.205 0.094-0.444 0.154-0.696 0.166q-0.348 0.012-1.245 0.012h-0.123v-2.291h0.424q0.614 0 0.98 0.009c0.005-0 0.011-0 0.017-0 0.199 0 0.391 0.033 0.569 0.093 0.198 0.064 0.374 0.19 0.502 0.356 0.111 0.172 0.176 0.379 0.176 0.602 0 0.022-0.001 0.045-0.002 0.067 0 0.003 0 0.011 0 0.018 0 0.209-0.053 0.406-0.147 0.578-0.1 0.175-0.259 0.314-0.449 0.392l-0.006 0.002zM13.53 11.533c-0.142 0.070-0.308 0.117-0.484 0.129q-0.24 0.012-0.83 0.012h-0.289v-1.935h0.16q0.614 0 0.924 0.009c0.194 0.001 0.379 0.041 0.548 0.111 0.146 0.064 0.27 0.182 0.342 0.33 0.071 0.136 0.113 0.292 0.116 0.457 0 0.012 0.001 0.024 0.001 0.037 0 0.178-0.037 0.347-0.104 0.5-0.078 0.153-0.211 0.278-0.373 0.346l-0.005 0.002z"></path>
</svg>
<svg id="icon-vk_hover" width="26" height="26" viewBox="0 0 26 26" x="462" y="0">
<path fill="#ef0d22" d="M13 1c6.627 0 12 5.373 12 12s-5.373 12-12 12c-6.627 0-12-5.373-12-12s5.373-12 12-12zM13 0c-7.18 0-13 5.82-13 13s5.82 13 13 13c7.18 0 13-5.82 13-13-0.009-7.176-5.824-12.991-12.999-13h-0.001zM16.448 12.924c-0.355-0.367-0.82-0.626-1.343-0.722l-0.015-0.055c0.387-0.159 0.703-0.424 0.919-0.76 0.215-0.335 0.34-0.735 0.34-1.163 0-0.012-0-0.025-0-0.037 0-0.011 0-0.025 0-0.040 0-0.358-0.090-0.695-0.249-0.989-0.167-0.292-0.417-0.534-0.719-0.69-0.291-0.16-0.618-0.273-0.966-0.326-0.415-0.052-0.877-0.081-1.346-0.081-0.070 0-0.139 0.001-0.208 0.002l-3.221-0v9.146h3.658c0.041 0.001 0.090 0.002 0.139 0.002 0.508 0 1-0.063 1.471-0.182 0.394-0.115 0.772-0.313 1.098-0.573 0.284-0.222 0.518-0.508 0.681-0.835 0.17-0.348 0.265-0.74 0.265-1.155 0-0.021-0-0.041-0.001-0.062 0.002-0.029 0.003-0.067 0.003-0.105 0-0.527-0.194-1.009-0.515-1.378l0.002 0.003zM13.991 15.353c-0.205 0.094-0.444 0.154-0.696 0.166q-0.348 0.012-1.245 0.012h-0.123v-2.291h0.424q0.614 0 0.98 0.009c0.005-0 0.011-0 0.017-0 0.199 0 0.391 0.033 0.569 0.093 0.198 0.064 0.374 0.19 0.502 0.356 0.111 0.172 0.176 0.379 0.176 0.602 0 0.022-0.001 0.045-0.002 0.067 0 0.003 0 0.011 0 0.018 0 0.209-0.053 0.406-0.147 0.578-0.1 0.175-0.259 0.314-0.449 0.392l-0.006 0.002zM13.53 11.533c-0.142 0.070-0.308 0.117-0.484 0.129q-0.24 0.012-0.83 0.012h-0.289v-1.935h0.16q0.614 0 0.924 0.009c0.194 0.001 0.379 0.041 0.548 0.111 0.146 0.064 0.27 0.182 0.342 0.33 0.071 0.136 0.113 0.292 0.116 0.457 0 0.012 0.001 0.024 0.001 0.037 0 0.178-0.037 0.347-0.104 0.5-0.078 0.153-0.211 0.278-0.373 0.346l-0.005 0.002z"></path>
</svg>
<svg id="icon-youtube" width="26" height="26" viewBox="0 0 26 26" x="504" y="0">
<path fill="#fff" d="M13 1c6.627 0 12 5.373 12 12s-5.373 12-12 12c-6.627 0-12-5.373-12-12s5.373-12 12-12zM13 0c-7.18 0-13 5.82-13 13s5.82 13 13 13c7.18 0 13-5.82 13-13-0.009-7.176-5.824-12.991-12.999-13h-0.001zM18.606 14.034l-8.4 5.060c-0.109 0.063-0.24 0.101-0.379 0.101-0.133 0-0.258-0.034-0.367-0.094-0.222-0.111-0.379-0.335-0.396-0.596l-0-10.119c0.036-0.385 0.357-0.684 0.749-0.684 0.137 0 0.265 0.037 0.376 0.1l8.405 5.058c0.203 0.119 0.338 0.337 0.338 0.585 0 0.001 0 0.002 0 0.003 0 0.004 0 0.009 0 0.014 0 0.242-0.13 0.454-0.323 0.57z"></path>
</svg>
<svg id="icon-youtube_hover" width="26" height="26" viewBox="0 0 26 26" x="546" y="0">
<path fill="#ef0d22" d="M13 1c6.627 0 12 5.373 12 12s-5.373 12-12 12c-6.627 0-12-5.373-12-12s5.373-12 12-12zM13 0c-7.18 0-13 5.82-13 13s5.82 13 13 13c7.18 0 13-5.82 13-13-0.009-7.176-5.824-12.991-12.999-13h-0.001zM18.606 14.034l-8.4 5.060c-0.109 0.063-0.24 0.101-0.379 0.101-0.133 0-0.258-0.034-0.367-0.094-0.222-0.111-0.379-0.335-0.396-0.596l-0-10.119c0.036-0.385 0.357-0.684 0.749-0.684 0.137 0 0.265 0.037 0.376 0.1l8.405 5.058c0.203 0.119 0.338 0.337 0.338 0.585 0 0.001 0 0.002 0 0.003 0 0.004 0 0.009 0 0.014 0 0.242-0.13 0.454-0.323 0.57z"></path>
</svg>
</svg>
